<svg width="3679" height="3488" viewBox="0 0 3679 3488" fill="none" xmlns="http://www.w3.org/2000/svg">
<ellipse cx="610.232" cy="2931.52" rx="262.2" ry="95" fill="#8ED13E"/>
<ellipse cx="1799.63" cy="3349.52" rx="228" ry="95" fill="#8ED13E"/>
<ellipse cx="3099.6" cy="2797.6" rx="187.72" ry="79.42" fill="#8ED13E"/>
<path d="M226.92 1696.67C249.679 1687.74 258.864 1666.53 249.885 1643.64L228.932 1590.22C241.111 1576.64 266.966 1553.29 253.599 1496.9C240.232 1440.51 182.536 1471.95 193.013 1498.65C201.992 1521.55 190.22 1565.99 140.504 1554.47C108.976 1547.16 113.263 1496.19 118.157 1475.19C123.653 1433.41 86.8268 1406.48 60.7705 1440.47C43.3999 1463.13 38.5029 1506.43 66.242 1565.99C88.3901 1613.54 139.163 1625.43 163.65 1624.63L183.106 1674.23C190.589 1693.31 204.162 1705.59 226.92 1696.67Z" fill="#8E4C2F"/>
<path d="M488.14 1667.4C462.604 1667.4 445.58 1650.38 445.58 1624.84V1565.26C428.556 1556.74 394.508 1543.98 385.996 1484.39C377.484 1424.81 445.58 1433.32 445.58 1463.11C445.58 1488.65 488.14 1526.95 517.932 1497.16C541.766 1473.33 522.188 1430.48 509.42 1412.04C488.14 1373.74 513.676 1333.73 551.98 1356.71C577.516 1372.03 598.796 1412.04 594.54 1480.14C591.142 1534.51 546.305 1565.26 522.188 1573.77V1629.1C522.188 1650.38 513.676 1667.4 488.14 1667.4Z" fill="#8E4C2F"/>
<path d="M475.372 2854.82L428.556 2756.94C495.234 2694.52 633.696 2604.57 654.124 2744.17C679.66 2918.66 603.052 2910.15 560.492 2910.15C526.444 2910.15 489.559 2873.27 475.372 2854.82Z" fill="#A75A41"/>
<path d="M937.944 2159.08C961.813 2207.33 1029.43 2447.16 896.88 2482.73C856.581 2493.54 790.179 2529.91 778.047 2400.38C760.17 2209.51 893.442 2148.06 937.944 2159.08Z" fill="#AE5E45"/>
<path d="M147.661 2727.14C228.526 2786.73 286.691 2690.26 305.133 2642.02C305.133 2642.02 202.99 2131.3 190.22 2335.59C177.451 2539.88 66.797 2667.56 147.661 2727.14Z" fill="#AE5E45"/>
<path d="M551.98 2871.85V2773.96L760.524 2710.12L747.756 2888.87C742.082 2914.41 713.708 2965.48 645.612 2965.48C577.516 2965.48 554.818 2903.06 551.98 2871.85Z" fill="#BF6E53"/>
<path d="M2.95648 2046.18C71.0525 2076.83 116.45 2058.95 130.636 2046.18C171.778 1985.18 229.376 1864.03 130.636 1867.43C7.21249 1871.69 -5.55552 1995.11 2.95648 2046.18Z" fill="#A75A41"/>
<path d="M360.46 1590.79C540.915 1556.75 654.124 1664.56 688.172 1722.73C710.871 1711.38 786.061 1705.7 824.365 1718.47C862.669 1731.24 901.581 1765.29 871.181 1807.85C849.901 1837.64 815.853 1875.94 743.501 1880.2C764.781 2178.12 871.181 2339.85 905.229 2480.3C930.765 2633.51 807.341 2769.7 530.701 2786.73C254.061 2803.75 177.452 2310.06 130.636 2080.23C83.8204 1850.41 134.892 1633.35 360.46 1590.79Z" fill="#BF6E53"/>
<path d="M237.033 2071.72C240.437 2129.6 305.129 2135.56 334.921 2122.79C346.27 2139.82 347.689 2178.12 394.505 2169.61C394.505 2144.07 397.346 2117.12 403.02 2110.02C475.372 2093 505.164 2080.23 496.649 2016.39C487.489 1947.72 420.044 1952.55 351.945 1969.58C276.598 1988.41 232.777 1999.37 237.033 2071.72Z" fill="#FFC39B"/>
<path d="M403.02 2041.93L317.9 2058.95C319.319 2073.14 331.52 2099.81 368.972 2093C406.425 2086.19 407.276 2056.11 403.02 2041.93Z" fill="white"/>
<ellipse cx="347.441" cy="1989.81" rx="42.56" ry="25.536" transform="rotate(-10.7125 347.441 1989.81)" fill="#4A1C00"/>
<ellipse cx="496.652" cy="1905.74" rx="25.536" ry="42.56" transform="rotate(-6.29949 496.652 1905.74)" fill="#4A1C00"/>
<ellipse cx="236.523" cy="1956.46" rx="24.2592" ry="40.432" transform="rotate(-10.1409 236.523 1956.46)" fill="#4A1C00"/>
<path d="M454.092 1782.31L530.7 1790.82" stroke="#8E4C2F" stroke-width="25.536" stroke-linecap="round"/>
<path d="M237.036 1824.87L185.964 1850.41" stroke="#8E4C2F" stroke-width="25.536" stroke-linecap="round"/>
<path d="M398.765 2233.45C237.037 2288.78 275.34 2403.69 305.133 2544.14C343.436 2688.84 424.3 2765.45 569.004 2731.4C684.768 2704.16 676.823 2566.84 658.38 2501.58L624.332 2382.41C598.796 2246.22 492.396 2201.42 398.765 2233.45Z" fill="#FFC39B"/>
<path d="M411.532 2578.18L492.396 2616.49" stroke="#BF6E53" stroke-width="14.896" stroke-linecap="round"/>
<path d="M479.628 2569.67L428.556 2629.26" stroke="#BF6E53" stroke-width="14.896" stroke-linecap="round"/>
<path d="M1015.55 2216.48C991.094 2262.14 857.469 2224.39 811.227 2198.98C723.485 2154.96 691.405 2124.41 700.535 2060.28C709.665 1996.14 774.551 1996.26 812.816 2028.69C830.072 2043.32 924.427 2088.66 965.053 2100.8C1018.51 2116.76 1051.31 2149.72 1015.55 2216.48Z" fill="#BF6E53"/>
<path d="M3009.75 2726.62V2658.52C3009.75 2560.63 3277.88 2611.71 3252.34 2684.06C3226.81 2756.41 3171.48 2807.48 3090.61 2798.97C3025.92 2792.16 3009.75 2747.9 3009.75 2726.62Z" fill="#D02F90"/>
<path d="M3567.29 2428.7L3546.01 2411.67C3501.74 2289.1 3564.45 2190.36 3601.33 2156.31C3605.59 2154.89 3625.15 2166.73 3652.41 2232.92C3682.2 2305.27 3690.71 2335.06 3652.41 2398.9C3621.76 2449.98 3582.89 2440.05 3567.29 2428.7Z" fill="#D02F90"/>
<path d="M2669.27 2398.9C2676.08 2347.83 2774.25 2329.39 2822.49 2322.3C2934.84 2363.15 2903.35 2486.86 2873.56 2543.61C2863.63 2543.61 2825.89 2547.86 2754.39 2547.86C2665.01 2547.86 2660.76 2462.74 2669.27 2398.9Z" fill="#EC4CAD"/>
<path d="M3260.23 1342.48C3271.31 1381.72 3299.16 1488.12 3299.16 1586.01C3368.85 1590.8 3507.03 1640.61 3511.96 1624.31C3518.12 1603.95 3503.45 1407.26 3452.37 1305.11C3401.3 1202.97 3342.06 1209.84 3307.67 1215.74C3273.28 1221.63 3235.54 1255.08 3260.23 1342.48Z" fill="#EC4CAD"/>
<path d="M3294.9 1360.44C3320.44 1432.79 3354.49 1539.19 3324.69 1611.54C3369.06 1609.1 3420.89 1608.73 3469.4 1607.29C3474.38 1586.6 3468 1446.78 3422.58 1326.39C3409.03 1290.46 3371.46 1250.44 3337.46 1258.3C3303.46 1266.16 3282.13 1283.83 3294.9 1360.44Z" fill="#FFC5DC"/>
<path d="M2920.37 1339.16C2968.04 1407.26 3032.45 1546.29 3060.82 1615.8C3128.92 1600.2 3265.11 1564.73 3265.11 1547.7C3265.11 1526.42 3188.5 1356.18 3116.15 1249.78C3058.27 1164.66 2985.63 1174.6 2954.42 1190.2C2923.21 1205.81 2886.33 1271.06 2920.37 1339.16Z" fill="#EC4CAD"/>
<path d="M2967.19 1343.42C3014.86 1411.51 3066.5 1512.24 3094.87 1581.75C3137.43 1568.98 3171.48 1556.22 3218.29 1543.45C3218.29 1522.17 3158.71 1381.72 3086.36 1275.32C3064.76 1243.56 3019.68 1212.9 2988.47 1228.5C2957.26 1244.11 2933.14 1275.32 2967.19 1343.42Z" fill="#FFC5DC"/>
<path d="M3222.55 2692.57C3025.07 2709.59 2896.26 2600.36 2856.53 2543.61C2826.74 2509.56 2775.67 2424.44 2826.74 2318.04C2898.24 2215.9 2930.31 1969.05 2937.4 1858.39C2954.42 1700.92 2996.98 1539.19 3341.72 1539.19C3741.78 1598.78 3622.61 2100.98 3609.85 2228.66C3597.08 2356.34 3469.4 2671.29 3222.55 2692.57Z" fill="#EC4CAD"/>
<path d="M2562.87 2215.9C2612.93 2296.76 2796.95 2248.53 2873.56 2215.9C3018.26 2160.57 3086.36 2122.26 3082.1 2020.12C3077.85 1917.98 2992.73 1900.95 2928.89 1947.77C2885.09 1979.88 2775.67 2001.68 2703.32 2020.12C2571.38 2041.4 2507.54 2126.52 2562.87 2215.9Z" fill="#EC4CAD"/>
<path d="M3043.8 2364.86C3091.47 2262.71 3216.88 2228.66 3273.62 2224.41C3328.95 2221.57 3450.31 2262.71 3473.65 2364.86C3507.7 2513.82 3405.56 2620.22 3252.34 2632.98C3101.73 2645.53 2984.21 2492.54 3043.8 2364.86Z" fill="#FFA6C9"/>
<path d="M3269.37 2462.74L3307.67 2539.35" stroke="#FF3888" stroke-width="17.024" stroke-linecap="round"/>
<path d="M3252.34 2518.07L3328.95 2488.28" stroke="#FF3888" stroke-width="17.024" stroke-linecap="round"/>
<path d="M3124.66 1871.16C3128.07 1796.26 3195.6 1763.34 3231.06 1756.25C3231.06 1722.2 3226.81 1705.18 3222.55 1692.41C3256.6 1699.22 3276.46 1737.81 3282.13 1756.25C3316.18 1763.34 3388.53 1773.27 3426.84 1777.53C3494.93 1785.09 3580.05 1811.58 3575.8 1922.23C3572.39 2010.76 3503.45 2038.56 3473.65 2041.4C3397.05 2041.4 3225.96 2017.57 3205.53 2007.35C3179.99 1994.58 3120.41 1964.79 3124.66 1871.16Z" fill="#FFA6C9"/>
<ellipse cx="3503.45" cy="1900.95" rx="25.536" ry="42.56" fill="#750F4C"/>
<path d="M3443.86 1935H3333.21C3337.46 1973.3 3371.51 1977.56 3401.3 1977.56C3435.62 1977.56 3443.86 1952.02 3443.86 1935Z" fill="white"/>
<path d="M3243.83 1837.11C3259.44 1842.79 3292.35 1858.39 3299.16 1875.42C3278.73 1875.42 3245.25 1875.42 3231.06 1875.42" stroke="#750F4C" stroke-width="17.024" stroke-linecap="round"/>
<path d="M1360.77 1608.57C1381.2 1693.69 1474.27 1720.65 1518.24 1723.49C1577.83 1719.23 1548.04 1646.88 1496.96 1634.11C1456.11 1623.9 1440.22 1595.81 1437.38 1578.78C1433.12 1527.71 1407.59 1527.71 1394.82 1527.71C1369.28 1527.71 1347.49 1553.25 1360.77 1608.57Z" fill="#61A400"/>
<path d="M1450.15 1859.68C1443.34 1794.99 1498.38 1775.98 1526.76 1774.56L1577.83 1889.47C1538.11 1906.49 1456.96 1924.37 1450.15 1859.68Z" fill="#61A400"/>
<path d="M1522.5 1531.97C1428.87 1591.55 1479.94 1697.95 1522.5 1714.97V1829.89C1522.5 2068.22 1909.8 1902.24 1922.56 1829.89C1932.78 1772.01 1878.58 1760.37 1850.21 1761.79V1693.69C1864.4 1692.28 1892.77 1672.41 1892.77 1617.09C1892.77 1548.99 1841.7 1520.62 1816.16 1514.94V1476.64C1816.16 1434.08 1790.63 1417.05 1752.32 1417.05C1708.06 1417.05 1702.67 1456.78 1705.51 1476.64H1628.9C1624.64 1442.59 1620.39 1417.05 1569.32 1417.05C1528.46 1417.05 1521.08 1459.61 1522.5 1476.64V1531.97Z" fill="#79CB00"/>
<rect x="1552.29" y="1710.72" width="212.8" height="204.288" rx="51.072" fill="#B3FF38"/>
<circle cx="1539.52" cy="1595.81" r="38.304" fill="#9BE030"/>
<circle cx="1820.42" cy="1595.81" r="38.304" fill="#9BE030"/>
<path d="M1709.76 1566.01H1620.39C1620.39 1583.04 1620.39 1612.83 1667.2 1612.83C1714.02 1612.83 1706.93 1581.62 1709.76 1566.01Z" fill="white"/>
<path d="M1726.79 1510.69H1769.35" stroke="#3C3C3C" stroke-width="21.28" stroke-linecap="round"/>
<ellipse cx="1582.08" cy="1510.69" rx="21.28" ry="29.792" fill="#3C3C3C"/>
<path d="M1924.1 3306.58L1934.04 3220.86C1948.33 3097.64 1595.32 3094.9 1616.9 3189.71C1638.49 3284.52 1689.26 3415.28 1811.75 3385.86C1891.9 3366.61 1921 3333.37 1924.1 3306.58Z" fill="#FFA01F"/>
<path d="M1310.47 2759.85L1344.52 2691.76C1387.08 2598.12 1322.14 2550.55 1280.68 2502.31C1255.14 2491.72 1161.51 2478.96 1114.7 2502.31C1059.37 2542.68 1042.34 2615.15 1076.39 2691.76C1114.7 2759.85 1233.86 2759.85 1310.47 2759.85L1310.47 2759.85Z" fill="#FFA01F"/>
<path d="M2489.38 2976.91C2475.22 2913.17 2400.01 2891.79 2336.67 2844.57C2185.17 2845.59 2175.76 3036.94 2187.21 3117.36C2199.06 3121.58 2255.3 3164.17 2336.68 3176.94C2468.1 3197.56 2506.41 3053.52 2489.38 2976.91Z" fill="#FFBE2E"/>
<path d="M1459.43 1934.19C1467.17 2060.66 1370.28 2115.44 1324.4 2124.67C1251.95 2070.16 1266.61 1995.79 1284.94 1968.24C1336.01 1912.91 1367.09 1904.32 1459.43 1934.19Z" fill="#E57C17"/>
<path d="M2497.89 2240.62C2420.07 2172.53 2293.61 2215.08 2259.56 2261.9C2134.72 2386.74 2114.86 2513 2106.34 2615.15C2089.6 2816.03 2221.25 2891.79 2331.91 2866.25C2412.78 2891.79 2459.59 2674.73 2519.17 2585.36C2587.27 2419.37 2600.04 2330 2497.89 2240.62Z" fill="#E57C17"/>
<path d="M1679.52 3198.22C1925.64 3248.48 2171.48 3144.69 2229.77 3079.05L2230.73 3078.18C2273.45 3039.46 2353.1 2967.25 2340.42 2815.18C2340.42 2691.76 2320.79 2381.07 2259.56 2181.04C2195.72 1972.49 2038.25 1780.97 1706.28 1815.02C1193.96 1831.63 1260.99 2415.43 1280.68 2576.84C1301.96 2751.34 1371.89 3135.4 1679.52 3198.22Z" fill="#FFBE2E"/>
<path d="M2680.37 2686.34C2630.03 2776.88 2364 2697.2 2272.32 2644.94C2098.24 2554.17 2035.05 2492.06 2055.31 2364.1C2075.58 2236.13 2205.33 2238.39 2280.84 2304.46C2314.89 2334.25 2502.15 2427.88 2583.01 2453.42C2689.42 2487.02 2753.98 2553.95 2680.37 2686.34Z" fill="#FFBE2E"/>
<path d="M2165.93 2002.28C2039.95 2015.9 1985.76 1928.51 1974.41 1883.12C2025.48 1808.21 2094.99 1823.53 2123.37 1840.56C2182.95 1883.12 2191.46 1908.65 2165.93 2002.28Z" fill="#E57C17"/>
<path d="M1604.26 2507.44C1605.89 2526.18 1622.4 2540.04 1641.13 2538.41C1659.87 2536.78 1673.73 2520.28 1672.1 2501.54L1604.26 2507.44ZM1672.1 2501.54L1663.59 2403.65L1595.75 2409.55L1604.26 2507.44L1672.1 2501.54Z" fill="white"/>
<path d="M1671.51 2499C1673.18 2518.21 1690.1 2532.42 1709.3 2530.75C1728.5 2529.08 1742.72 2512.16 1741.05 2492.96L1671.51 2499ZM1741.05 2492.96L1732.53 2395.07L1663 2401.12L1671.51 2499L1741.05 2492.96Z" fill="white"/>
<path d="M1501.99 2432.14C1506.99 2492.12 1553.06 2491.72 1578.6 2487.47L1757.35 2470.44C1795.66 2461.93 1829.7 2432.14 1821.19 2389.58C1812.97 2348.48 1778.63 2334.25 1693.51 2347.02L1591.37 2359.79C1540.3 2359.79 1497.74 2381.07 1501.99 2432.14Z" fill="#FFF9BF"/>
<path d="M1689.25 2334.25L1591.37 2347.02C1591.37 2368.3 1608.39 2415.12 1659.46 2402.35C1693.51 2393.84 1694.93 2354.11 1689.25 2334.25Z" fill="#E57C17"/>
<path d="M1404.1 2355.53C1414.03 2324.32 1449.22 2273.82 1510.5 2321.48" stroke="#793900" stroke-width="29.792" stroke-linecap="round"/>
<path d="M1804.17 2287.44C1812.68 2253.39 1850.98 2223.6 1902.06 2274.67" stroke="#793900" stroke-width="29.792" stroke-linecap="round"/>
<path d="M1825.45 2155.5L1902.06 2155.5" stroke="#E47A17" stroke-width="25.536" stroke-linecap="round"/>
<path d="M1395.59 2215.08L1463.69 2189.55" stroke="#E47A17" stroke-width="25.536" stroke-linecap="round"/>
<path d="M1459.43 2972.65C1501.64 3152.05 1707.7 3167.01 1808.42 3151.4C2093.58 3121.61 2148.9 2985.42 2127.62 2849.23C2063.78 2644.94 1910.57 2623.66 1655.22 2670.48C1617.31 2677.43 1408.37 2755.6 1459.43 2972.65Z" fill="#FFF9BF"/>
<path d="M1710.54 2981.16L1816.94 3032.24" stroke="#FFCA57" stroke-width="21.28" stroke-linecap="round"/>
<path d="M1727.56 3057.77L1795.65 2968.4" stroke="#FFCA57" stroke-width="21.28" stroke-linecap="round"/>
<path d="M2336.7 439.577C2287.1 538.773 2441.68 619.747 2515.45 643.865C2566.52 605.562 2604.83 588.538 2643.13 541.721C2570.78 550.233 2400.54 311.898 2336.7 439.577Z" fill="#EB710D"/>
<path d="M3064.47 371.482V465.115C3040.36 581.445 3032.13 807.295 3192.15 780.057C3352.18 752.819 3378 561.583 3370.91 469.369L3370.91 128.891C3183.64 94.8413 3072.98 231.033 3064.47 371.482Z" fill="#EB710D"/>
<path d="M3170.87 214.009L3102.78 243.802C3179.39 116.121 3315.58 113.284 3370.91 128.889V354.457C3340.26 351.053 3309.9 282.105 3298.55 248.057C3275.85 293.455 3227.05 387.654 3213.43 401.273C3175.98 384.249 3169.45 269.337 3170.87 214.009Z" fill="#FFE5C2"/>
<path d="M3098.52 980.087C3261.95 837.086 3166.62 687.842 3098.52 631.095C3088.59 565.837 3077.24 524.697 3068.73 473.625C3026.17 443.833 2979.35 324.665 2987.87 231.033C3049.15 128.889 3027.59 38.0942 3009.15 5.46465C2962.33 -15.8148 2838.91 30.9999 2809.11 82.0719C2761.45 54.8335 2668.67 43.7679 2626.11 43.7679C2621.85 52.2799 2621.85 73.5599 2621.85 94.84C2596.31 94.84 2587.8 111.864 2579.29 120.375C2558.01 86.3275 2434.59 69.3035 2417.56 86.3275C2400.54 103.351 2413.31 243.799 2460.12 260.823C2439.69 495.755 2545.24 744.589 2600.57 839.639C2711.23 1018.39 2796.35 1120.54 3098.52 980.087Z" fill="#FC821E"/>
<path d="M3328.34 954.553C3341.11 894.97 3319.83 856.666 3302.81 848.153C3285.78 839.641 3260.25 839.642 3238.97 822.618C3217.69 805.594 3187.9 788.569 3187.9 788.569C3072.98 699.193 2975.1 941.785 3090.01 984.345C3204.92 1026.91 3312.27 1029.58 3328.34 954.553Z" fill="#FC821E"/>
<path d="M3038.94 1095V1001.37L3037.49 1000.81C2946.08 965.654 2885.36 942.298 2817.62 1039.67C2872.95 1184.38 2919.77 1171.61 2979.35 1163.1C3027.02 1156.29 3038.94 1114.86 3038.94 1095Z" fill="#EB710D"/>
<path d="M2936.79 231.033H2987.86C3017.66 188.473 3051.7 82.0733 3013.4 13.9773C2945.3 31.0013 2874.37 120.377 2847.42 162.937C2850.25 172.868 2859.33 192.73 2872.95 192.73C2896.79 179.11 2921.19 178.543 2932.54 179.961L2936.79 231.033Z" fill="#FFE5C2"/>
<rect x="2689.95" y="243.801" width="93.632" height="51.072" rx="25.536" fill="#FFCB90"/>
<rect x="2477.15" y="295.746" width="80.7053" height="51.072" rx="25.536" transform="rotate(-25.6385 2477.15 295.746)" fill="#FFCB90"/>
<path d="M2515.45 422.553L2562.27 414.041" stroke="#441F00" stroke-width="25.536" stroke-linecap="round"/>
<ellipse cx="2749.53" cy="375.737" rx="25.536" ry="38.304" fill="#441F00"/>
<path d="M2694.2 494.905C2694.2 516.06 2677.18 537.465 2651.64 533.209C2630.49 533.209 2613.34 516.06 2613.34 494.905C2613.34 473.751 2630.49 456.601 2651.64 456.601C2672.8 456.601 2694.2 473.751 2694.2 494.905Z" fill="#FFA896"/>
<path d="M2734.21 465.964C2734.21 489.94 2714.77 509.376 2690.8 509.376C2666.82 509.376 2647.39 489.94 2647.39 465.964C2630.36 439.577 2666.82 422.553 2690.8 422.553C2714.77 422.553 2734.21 441.989 2734.21 465.964Z" fill="white"/>
<circle cx="2605.68" cy="474.476" r="43.4112" fill="white"/>
<ellipse cx="2638.95" cy="435.949" rx="32.1981" ry="18.2341" transform="rotate(-6.77892 2638.95 435.949)" fill="#451F00"/>
<path d="M2907 784.312C2992.12 911.992 3053.12 957.389 3094.26 984.343C3043.19 1018.39 2936.79 1048.19 2821.88 1039.67C2729.95 1032.86 2655.9 933.273 2596.31 831.128C2570.78 656.632 2821.88 656.631 2907 784.312Z" fill="white"/>
<path d="M2775.07 937.529L2847.42 958.809" stroke="#E5A56B" stroke-width="12.768" stroke-linecap="round"/>
<path d="M2826.14 916.25L2800.6 975.834" stroke="#E5A56B" stroke-width="12.768" stroke-linecap="round"/>
<path d="M3277.27 499.161C3209.18 492.352 3101.36 467.951 3055.96 456.601C2919.77 503.417 3017.66 588.537 3034.68 605.561C3047.09 617.97 3234.71 673.657 3294.3 648.121C3353.88 622.585 3362.39 507.673 3277.27 499.161Z" fill="#FC821E"/>
</svg>
