<svg width="3847" height="4513" viewBox="0 0 3847 4513" fill="none" xmlns="http://www.w3.org/2000/svg">
<ellipse cx="778.232" cy="3956.52" rx="262.2" ry="95" fill="#8ED13E"/>
<ellipse cx="1967.63" cy="4374.52" rx="228" ry="95" fill="#8ED13E"/>
<ellipse cx="3267.6" cy="3822.6" rx="187.72" ry="79.42" fill="#8ED13E"/>
<path d="M394.92 2721.67C417.679 2712.74 426.864 2691.53 417.885 2668.64L396.932 2615.22C409.111 2601.64 434.966 2578.29 421.599 2521.9C408.232 2465.51 350.536 2496.95 361.013 2523.65C369.992 2546.55 358.22 2590.99 308.504 2579.47C276.976 2572.16 281.263 2521.19 286.157 2500.19C291.653 2458.41 254.827 2431.48 228.771 2465.47C211.4 2488.13 206.503 2531.43 234.242 2590.99C256.39 2638.54 307.163 2650.43 331.65 2649.63L351.106 2699.23C358.589 2718.31 372.162 2730.59 394.92 2721.67Z" fill="#8E4C2F"/>
<path d="M656.14 2692.4C630.604 2692.4 613.58 2675.38 613.58 2649.84V2590.26C596.556 2581.74 562.508 2568.98 553.996 2509.39C545.484 2449.81 613.58 2458.32 613.58 2488.11C613.58 2513.65 656.14 2551.95 685.932 2522.16C709.766 2498.33 690.188 2455.48 677.42 2437.04C656.14 2398.74 681.676 2358.73 719.98 2381.71C745.516 2397.03 766.796 2437.04 762.54 2505.14C759.142 2559.51 714.305 2590.26 690.188 2598.77V2654.1C690.188 2675.38 681.676 2692.4 656.14 2692.4Z" fill="#8E4C2F"/>
<path d="M643.372 3879.82L596.556 3781.94C663.234 3719.52 801.696 3629.57 822.124 3769.17C847.66 3943.66 771.052 3935.15 728.492 3935.15C694.444 3935.15 657.559 3898.27 643.372 3879.82Z" fill="#A75A41"/>
<path d="M1105.94 3184.08C1129.81 3232.33 1197.43 3472.16 1064.88 3507.73C1024.58 3518.54 958.179 3554.91 946.047 3425.38C928.17 3234.51 1061.44 3173.06 1105.94 3184.08Z" fill="#AE5E45"/>
<path d="M315.661 3752.14C396.526 3811.73 454.691 3715.26 473.133 3667.02C473.133 3667.02 370.99 3156.3 358.22 3360.59C345.451 3564.88 234.797 3692.56 315.661 3752.14Z" fill="#AE5E45"/>
<path d="M719.98 3896.85V3798.96L928.524 3735.12L915.756 3913.87C910.082 3939.41 881.708 3990.48 813.612 3990.48C745.516 3990.48 722.818 3928.06 719.98 3896.85Z" fill="#BF6E53"/>
<path d="M170.956 3071.18C239.052 3101.83 284.45 3083.95 298.636 3071.18C339.778 3010.18 397.376 2889.03 298.636 2892.43C175.212 2896.69 162.444 3020.11 170.956 3071.18Z" fill="#A75A41"/>
<path d="M528.46 2615.79C708.915 2581.75 822.124 2689.56 856.172 2747.73C878.871 2736.38 954.061 2730.7 992.365 2743.47C1030.67 2756.24 1069.58 2790.29 1039.18 2832.85C1017.9 2862.64 983.853 2900.94 911.501 2905.2C932.781 3203.12 1039.18 3364.85 1073.23 3505.3C1098.76 3658.51 975.341 3794.7 698.701 3811.73C422.061 3828.75 345.452 3335.06 298.636 3105.23C251.82 2875.41 302.892 2658.35 528.46 2615.79Z" fill="#BF6E53"/>
<path d="M405.033 3096.72C408.437 3154.6 473.129 3160.56 502.921 3147.79C514.27 3164.82 515.689 3203.12 562.505 3194.61C562.505 3169.07 565.346 3142.12 571.02 3135.02C643.372 3118 673.164 3105.23 664.649 3041.39C655.489 2972.72 588.044 2977.55 519.945 2994.58C444.598 3013.41 400.777 3024.37 405.033 3096.72Z" fill="#FFC39B"/>
<path d="M571.02 3066.93L485.9 3083.95C487.319 3098.14 499.52 3124.81 536.972 3118C574.425 3111.19 575.276 3081.11 571.02 3066.93Z" fill="white"/>
<ellipse cx="515.441" cy="3014.81" rx="42.56" ry="25.536" transform="rotate(-10.7125 515.441 3014.81)" fill="#4A1C00"/>
<ellipse cx="664.652" cy="2930.74" rx="25.536" ry="42.56" transform="rotate(-6.29949 664.652 2930.74)" fill="#4A1C00"/>
<ellipse cx="404.523" cy="2981.46" rx="24.2592" ry="40.432" transform="rotate(-10.1409 404.523 2981.46)" fill="#4A1C00"/>
<path d="M622.092 2807.31L698.7 2815.82" stroke="#8E4C2F" stroke-width="25.536" stroke-linecap="round"/>
<path d="M405.036 2849.87L353.964 2875.41" stroke="#8E4C2F" stroke-width="25.536" stroke-linecap="round"/>
<path d="M566.765 3258.45C405.037 3313.78 443.34 3428.69 473.133 3569.14C511.436 3713.84 592.3 3790.45 737.004 3756.4C852.768 3729.16 844.823 3591.84 826.38 3526.58L792.332 3407.41C766.796 3271.22 660.396 3226.42 566.765 3258.45Z" fill="#FFC39B"/>
<path d="M579.532 3603.18L660.396 3641.49" stroke="#BF6E53" stroke-width="14.896" stroke-linecap="round"/>
<path d="M647.628 3594.67L596.556 3654.26" stroke="#BF6E53" stroke-width="14.896" stroke-linecap="round"/>
<path d="M1183.55 3241.48C1159.09 3287.14 1025.47 3249.39 979.227 3223.98C891.485 3179.96 859.405 3149.41 868.535 3085.28C877.665 3021.14 942.551 3021.26 980.816 3053.69C998.072 3068.32 1092.43 3113.66 1133.05 3125.8C1186.51 3141.76 1219.31 3174.72 1183.55 3241.48Z" fill="#BF6E53"/>
<path d="M3177.75 3751.62V3683.52C3177.75 3585.63 3445.88 3636.71 3420.34 3709.06C3394.81 3781.41 3339.48 3832.48 3258.61 3823.97C3193.92 3817.16 3177.75 3772.9 3177.75 3751.62Z" fill="#D02F90"/>
<path d="M3735.29 3453.7L3714.01 3436.67C3669.74 3314.1 3732.45 3215.36 3769.33 3181.31C3773.59 3179.89 3793.15 3191.73 3820.41 3257.92C3850.2 3330.27 3858.71 3360.06 3820.41 3423.9C3789.76 3474.98 3750.89 3465.05 3735.29 3453.7Z" fill="#D02F90"/>
<path d="M2837.27 3423.9C2844.08 3372.83 2942.25 3354.39 2990.49 3347.3C3102.84 3388.15 3071.35 3511.86 3041.56 3568.61C3031.63 3568.61 2993.89 3572.86 2922.39 3572.86C2833.01 3572.86 2828.76 3487.74 2837.27 3423.9Z" fill="#EC4CAD"/>
<path d="M3428.23 2367.48C3439.31 2406.72 3467.16 2513.12 3467.16 2611.01C3536.85 2615.8 3675.03 2665.61 3679.96 2649.31C3686.12 2628.95 3671.45 2432.26 3620.37 2330.11C3569.3 2227.97 3510.06 2234.84 3475.67 2240.74C3441.28 2246.63 3403.54 2280.08 3428.23 2367.48Z" fill="#EC4CAD"/>
<path d="M3462.9 2385.44C3488.44 2457.79 3522.49 2564.19 3492.69 2636.54C3537.06 2634.1 3588.89 2633.73 3637.4 2632.29C3642.38 2611.6 3636 2471.78 3590.58 2351.39C3577.03 2315.46 3539.46 2275.44 3505.46 2283.3C3471.46 2291.16 3450.13 2308.83 3462.9 2385.44Z" fill="#FFC5DC"/>
<path d="M3088.37 2364.16C3136.04 2432.26 3200.45 2571.29 3228.82 2640.8C3296.92 2625.2 3433.11 2589.73 3433.11 2572.7C3433.11 2551.42 3356.5 2381.18 3284.15 2274.78C3226.27 2189.66 3153.63 2199.6 3122.42 2215.2C3091.21 2230.81 3054.33 2296.06 3088.37 2364.16Z" fill="#EC4CAD"/>
<path d="M3135.19 2368.42C3182.86 2436.51 3234.5 2537.24 3262.87 2606.75C3305.43 2593.98 3339.48 2581.22 3386.29 2568.45C3386.29 2547.17 3326.71 2406.72 3254.36 2300.32C3232.76 2268.56 3187.68 2237.9 3156.47 2253.5C3125.26 2269.11 3101.14 2300.32 3135.19 2368.42Z" fill="#FFC5DC"/>
<path d="M3390.55 3717.57C3193.07 3734.59 3064.26 3625.36 3024.53 3568.61C2994.74 3534.56 2943.67 3449.44 2994.74 3343.04C3066.24 3240.9 3098.31 2994.05 3105.4 2883.39C3122.42 2725.92 3164.98 2564.19 3509.72 2564.19C3909.78 2623.78 3790.61 3125.98 3777.85 3253.66C3765.08 3381.34 3637.4 3696.29 3390.55 3717.57Z" fill="#EC4CAD"/>
<path d="M2730.87 3240.9C2780.93 3321.76 2964.95 3273.53 3041.56 3240.9C3186.26 3185.57 3254.36 3147.26 3250.1 3045.12C3245.85 2942.98 3160.73 2925.95 3096.89 2972.77C3053.09 3004.88 2943.67 3026.68 2871.32 3045.12C2739.38 3066.4 2675.54 3151.52 2730.87 3240.9Z" fill="#EC4CAD"/>
<path d="M3211.8 3389.86C3259.47 3287.71 3384.88 3253.66 3441.62 3249.41C3496.95 3246.57 3618.31 3287.71 3641.65 3389.86C3675.7 3538.82 3573.56 3645.22 3420.34 3657.98C3269.73 3670.53 3152.21 3517.54 3211.8 3389.86Z" fill="#FFA6C9"/>
<path d="M3437.37 3487.74L3475.67 3564.35" stroke="#FF3888" stroke-width="17.024" stroke-linecap="round"/>
<path d="M3420.34 3543.07L3496.95 3513.28" stroke="#FF3888" stroke-width="17.024" stroke-linecap="round"/>
<path d="M3292.66 2896.16C3296.07 2821.26 3363.6 2788.34 3399.06 2781.25C3399.06 2747.2 3394.81 2730.18 3390.55 2717.41C3424.6 2724.22 3444.46 2762.81 3450.13 2781.25C3484.18 2788.34 3556.53 2798.27 3594.84 2802.53C3662.93 2810.09 3748.05 2836.58 3743.8 2947.23C3740.39 3035.76 3671.45 3063.56 3641.65 3066.4C3565.05 3066.4 3393.96 3042.57 3373.53 3032.35C3347.99 3019.58 3288.41 2989.79 3292.66 2896.16Z" fill="#FFA6C9"/>
<ellipse cx="3671.45" cy="2925.95" rx="25.536" ry="42.56" fill="#750F4C"/>
<path d="M3611.86 2960H3501.21C3505.46 2998.3 3539.51 3002.56 3569.3 3002.56C3603.62 3002.56 3611.86 2977.02 3611.86 2960Z" fill="white"/>
<path d="M3411.83 2862.11C3427.44 2867.79 3460.35 2883.39 3467.16 2900.42C3446.73 2900.42 3413.25 2900.42 3399.06 2900.42" stroke="#750F4C" stroke-width="17.024" stroke-linecap="round"/>
<path d="M1528.77 2633.57C1549.2 2718.69 1642.27 2745.65 1686.24 2748.49C1745.83 2744.23 1716.04 2671.88 1664.96 2659.11C1624.11 2648.9 1608.22 2620.81 1605.38 2603.78C1601.12 2552.71 1575.59 2552.71 1562.82 2552.71C1537.28 2552.71 1515.49 2578.25 1528.77 2633.57Z" fill="#61A400"/>
<path d="M1618.15 2884.68C1611.34 2819.99 1666.38 2800.98 1694.76 2799.56L1745.83 2914.47C1706.11 2931.49 1624.96 2949.37 1618.15 2884.68Z" fill="#61A400"/>
<path d="M1690.5 2556.97C1596.87 2616.55 1647.94 2722.95 1690.5 2739.97V2854.89C1690.5 3093.22 2077.8 2927.24 2090.56 2854.89C2100.78 2797.01 2046.58 2785.37 2018.21 2786.79V2718.69C2032.4 2717.28 2060.77 2697.41 2060.77 2642.09C2060.77 2573.99 2009.7 2545.62 1984.16 2539.94V2501.64C1984.16 2459.08 1958.63 2442.05 1920.32 2442.05C1876.06 2442.05 1870.67 2481.78 1873.51 2501.64H1796.9C1792.64 2467.59 1788.39 2442.05 1737.32 2442.05C1696.46 2442.05 1689.08 2484.61 1690.5 2501.64V2556.97Z" fill="#79CB00"/>
<rect x="1720.29" y="2735.72" width="212.8" height="204.288" rx="51.072" fill="#B3FF38"/>
<circle cx="1707.52" cy="2620.81" r="38.304" fill="#9BE030"/>
<circle cx="1988.42" cy="2620.81" r="38.304" fill="#9BE030"/>
<path d="M1877.76 2591.01H1788.39C1788.39 2608.04 1788.39 2637.83 1835.2 2637.83C1882.02 2637.83 1874.93 2606.62 1877.76 2591.01Z" fill="white"/>
<path d="M1894.79 2535.69H1937.35" stroke="#3C3C3C" stroke-width="21.28" stroke-linecap="round"/>
<ellipse cx="1750.08" cy="2535.69" rx="21.28" ry="29.792" fill="#3C3C3C"/>
<path d="M2092.1 4331.58L2102.04 4245.86C2116.33 4122.64 1763.32 4119.9 1784.9 4214.71C1806.49 4309.52 1857.26 4440.28 1979.75 4410.86C2059.9 4391.61 2089 4358.37 2092.1 4331.58Z" fill="#FFA01F"/>
<path d="M1478.47 3784.85L1512.52 3716.76C1555.08 3623.12 1490.14 3575.55 1448.68 3527.31C1423.14 3516.72 1329.51 3503.96 1282.7 3527.31C1227.37 3567.68 1210.34 3640.15 1244.39 3716.76C1282.7 3784.85 1401.86 3784.85 1478.47 3784.85L1478.47 3784.85Z" fill="#FFA01F"/>
<path d="M2657.38 4001.91C2643.22 3938.17 2568.01 3916.79 2504.67 3869.57C2353.17 3870.59 2343.76 4061.94 2355.21 4142.36C2367.06 4146.58 2423.3 4189.17 2504.68 4201.94C2636.1 4222.56 2674.41 4078.52 2657.38 4001.91Z" fill="#FFBE2E"/>
<path d="M1627.43 2959.19C1635.17 3085.66 1538.28 3140.44 1492.4 3149.67C1419.95 3095.16 1434.61 3020.79 1452.94 2993.24C1504.01 2937.91 1535.09 2929.32 1627.43 2959.19Z" fill="#E57C17"/>
<path d="M2665.89 3265.62C2588.07 3197.53 2461.61 3240.08 2427.56 3286.9C2302.72 3411.74 2282.86 3538 2274.34 3640.15C2257.6 3841.03 2389.25 3916.79 2499.91 3891.25C2580.78 3916.79 2627.59 3699.73 2687.17 3610.36C2755.27 3444.37 2768.04 3355 2665.89 3265.62Z" fill="#E57C17"/>
<path d="M1847.52 4223.22C2093.64 4273.48 2339.48 4169.69 2397.77 4104.05L2398.73 4103.18C2441.45 4064.46 2521.1 3992.25 2508.42 3840.18C2508.42 3716.76 2488.79 3406.07 2427.56 3206.04C2363.72 2997.49 2206.25 2805.97 1874.28 2840.02C1361.96 2856.63 1428.99 3440.43 1448.68 3601.84C1469.96 3776.34 1539.89 4160.4 1847.52 4223.22Z" fill="#FFBE2E"/>
<path d="M2848.37 3711.34C2798.03 3801.88 2532 3722.2 2440.32 3669.94C2266.24 3579.17 2203.05 3517.06 2223.31 3389.1C2243.58 3261.13 2373.33 3263.39 2448.84 3329.46C2482.89 3359.25 2670.15 3452.88 2751.01 3478.42C2857.42 3512.02 2921.98 3578.95 2848.37 3711.34Z" fill="#FFBE2E"/>
<path d="M2333.93 3027.28C2207.95 3040.9 2153.76 2953.51 2142.41 2908.12C2193.48 2833.21 2262.99 2848.53 2291.37 2865.56C2350.95 2908.12 2359.46 2933.65 2333.93 3027.28Z" fill="#E57C17"/>
<path d="M1772.26 3532.44C1773.89 3551.18 1790.4 3565.04 1809.13 3563.41C1827.87 3561.78 1841.73 3545.28 1840.1 3526.54L1772.26 3532.44ZM1840.1 3526.54L1831.59 3428.65L1763.75 3434.55L1772.26 3532.44L1840.1 3526.54Z" fill="white"/>
<path d="M1839.51 3524C1841.18 3543.21 1858.1 3557.42 1877.3 3555.75C1896.5 3554.08 1910.72 3537.16 1909.05 3517.96L1839.51 3524ZM1909.05 3517.96L1900.53 3420.07L1831 3426.12L1839.51 3524L1909.05 3517.96Z" fill="white"/>
<path d="M1669.99 3457.14C1674.99 3517.12 1721.06 3516.72 1746.6 3512.47L1925.35 3495.44C1963.66 3486.93 1997.7 3457.14 1989.19 3414.58C1980.97 3373.48 1946.63 3359.25 1861.51 3372.02L1759.37 3384.79C1708.3 3384.79 1665.74 3406.07 1669.99 3457.14Z" fill="#FFF9BF"/>
<path d="M1857.25 3359.25L1759.37 3372.02C1759.37 3393.3 1776.39 3440.12 1827.46 3427.35C1861.51 3418.84 1862.93 3379.11 1857.25 3359.25Z" fill="#E57C17"/>
<path d="M1572.1 3380.53C1582.03 3349.32 1617.22 3298.82 1678.5 3346.48" stroke="#793900" stroke-width="29.792" stroke-linecap="round"/>
<path d="M1972.17 3312.44C1980.68 3278.39 2018.98 3248.6 2070.06 3299.67" stroke="#793900" stroke-width="29.792" stroke-linecap="round"/>
<path d="M1993.45 3180.5L2070.06 3180.5" stroke="#E47A17" stroke-width="25.536" stroke-linecap="round"/>
<path d="M1563.59 3240.08L1631.69 3214.55" stroke="#E47A17" stroke-width="25.536" stroke-linecap="round"/>
<path d="M1627.43 3997.65C1669.64 4177.05 1875.7 4192.01 1976.42 4176.4C2261.58 4146.61 2316.9 4010.42 2295.62 3874.23C2231.78 3669.94 2078.57 3648.66 1823.22 3695.48C1785.31 3702.43 1576.37 3780.6 1627.43 3997.65Z" fill="#FFF9BF"/>
<path d="M1878.54 4006.16L1984.94 4057.24" stroke="#FFCA57" stroke-width="21.28" stroke-linecap="round"/>
<path d="M1895.56 4082.77L1963.65 3993.4" stroke="#FFCA57" stroke-width="21.28" stroke-linecap="round"/>
<path d="M2504.7 1464.58C2455.1 1563.77 2609.68 1644.75 2683.45 1668.86C2734.52 1630.56 2772.83 1613.54 2811.13 1566.72C2738.78 1575.23 2568.54 1336.9 2504.7 1464.58Z" fill="#EB710D"/>
<path d="M3232.47 1396.48V1490.11C3208.36 1606.44 3200.13 1832.3 3360.15 1805.06C3520.18 1777.82 3546 1586.58 3538.91 1494.37L3538.91 1153.89C3351.64 1119.84 3240.98 1256.03 3232.47 1396.48Z" fill="#EB710D"/>
<path d="M3338.87 1239.01L3270.78 1268.8C3347.39 1141.12 3483.58 1138.28 3538.91 1153.89V1379.46C3508.26 1376.05 3477.9 1307.11 3466.55 1273.06C3443.85 1318.45 3395.05 1412.65 3381.43 1426.27C3343.98 1409.25 3337.45 1294.34 3338.87 1239.01Z" fill="#FFE5C2"/>
<path d="M3266.52 2005.09C3429.95 1862.09 3334.62 1712.84 3266.52 1656.1C3256.59 1590.84 3245.24 1549.7 3236.73 1498.63C3194.17 1468.83 3147.35 1349.67 3155.87 1256.03C3217.15 1153.89 3195.59 1063.09 3177.15 1030.46C3130.33 1009.19 3006.91 1056 2977.11 1107.07C2929.45 1079.83 2836.67 1068.77 2794.11 1068.77C2789.85 1077.28 2789.85 1098.56 2789.85 1119.84C2764.31 1119.84 2755.8 1136.86 2747.29 1145.38C2726.01 1111.33 2602.59 1094.3 2585.56 1111.33C2568.54 1128.35 2581.31 1268.8 2628.12 1285.82C2607.69 1520.75 2713.24 1769.59 2768.57 1864.64C2879.23 2043.39 2964.35 2145.54 3266.52 2005.09Z" fill="#FC821E"/>
<path d="M3496.34 1979.55C3509.11 1919.97 3487.83 1881.67 3470.81 1873.15C3453.78 1864.64 3428.25 1864.64 3406.97 1847.62C3385.69 1830.59 3355.9 1813.57 3355.9 1813.57C3240.98 1724.19 3143.1 1966.79 3258.01 2009.35C3372.92 2051.91 3480.27 2054.58 3496.34 1979.55Z" fill="#FC821E"/>
<path d="M3206.94 2120V2026.37L3205.49 2025.81C3114.08 1990.65 3053.36 1967.3 2985.62 2064.67C3040.95 2209.38 3087.77 2196.61 3147.35 2188.1C3195.02 2181.29 3206.94 2139.86 3206.94 2120Z" fill="#EB710D"/>
<path d="M3104.79 1256.03H3155.86C3185.66 1213.47 3219.7 1107.07 3181.4 1038.98C3113.3 1056 3042.37 1145.38 3015.42 1187.94C3018.25 1197.87 3027.33 1217.73 3040.95 1217.73C3064.79 1204.11 3089.19 1203.54 3100.54 1204.96L3104.79 1256.03Z" fill="#FFE5C2"/>
<rect x="2857.95" y="1268.8" width="93.632" height="51.072" rx="25.536" fill="#FFCB90"/>
<rect x="2645.15" y="1320.75" width="80.7053" height="51.072" rx="25.536" transform="rotate(-25.6385 2645.15 1320.75)" fill="#FFCB90"/>
<path d="M2683.45 1447.55L2730.27 1439.04" stroke="#441F00" stroke-width="25.536" stroke-linecap="round"/>
<ellipse cx="2917.53" cy="1400.74" rx="25.536" ry="38.304" fill="#441F00"/>
<path d="M2862.2 1519.91C2862.2 1541.06 2845.18 1562.47 2819.64 1558.21C2798.49 1558.21 2781.34 1541.06 2781.34 1519.91C2781.34 1498.75 2798.49 1481.6 2819.64 1481.6C2840.8 1481.6 2862.2 1498.75 2862.2 1519.91Z" fill="#FFA896"/>
<path d="M2902.21 1490.96C2902.21 1514.94 2882.77 1534.38 2858.8 1534.38C2834.82 1534.38 2815.39 1514.94 2815.39 1490.96C2798.36 1464.58 2834.82 1447.55 2858.8 1447.55C2882.77 1447.55 2902.21 1466.99 2902.21 1490.96Z" fill="white"/>
<circle cx="2773.68" cy="1499.48" r="43.4112" fill="white"/>
<ellipse cx="2806.95" cy="1460.95" rx="32.1981" ry="18.2341" transform="rotate(-6.77892 2806.95 1460.95)" fill="#451F00"/>
<path d="M3075 1809.31C3160.12 1936.99 3221.12 1982.39 3262.26 2009.34C3211.19 2043.39 3104.79 2073.19 2989.88 2064.67C2897.95 2057.86 2823.9 1958.27 2764.31 1856.13C2738.78 1681.63 2989.88 1681.63 3075 1809.31Z" fill="white"/>
<path d="M2943.07 1962.53L3015.42 1983.81" stroke="#E5A56B" stroke-width="12.768" stroke-linecap="round"/>
<path d="M2994.14 1941.25L2968.6 2000.83" stroke="#E5A56B" stroke-width="12.768" stroke-linecap="round"/>
<path d="M3445.27 1524.16C3377.18 1517.35 3269.36 1492.95 3223.96 1481.6C3087.77 1528.42 3185.66 1613.54 3202.68 1630.56C3215.09 1642.97 3402.71 1698.66 3462.3 1673.12C3521.88 1647.59 3530.39 1532.67 3445.27 1524.16Z" fill="#FC821E"/>
<rect x="1144.4" y="185.554" width="141.056" height="685.824" fill="#98B9BB"/>
<rect x="638.544" y="185.554" width="141.056" height="685.824" fill="#A2C1C4"/>
<path fill-rule="evenodd" clip-rule="evenodd" d="M1122.51 587.17C1131.43 576.631 1143.91 548.258 1122.51 519.074C1071.44 521.506 1039.01 534.476 1017.94 545.826C1011.66 549.419 1007.99 550.039 1000.91 545.826C998.48 541.772 996.048 528.802 1008.21 519.074C1020.28 509.419 943.706 501.829 887.87 554.024C744.957 587.535 638.544 715.814 638.544 868.946V1489.11H1285.46V868.946C1285.46 748.333 1219.44 643.139 1121.57 587.525C1121.88 587.407 1122.2 587.289 1122.51 587.17Z" fill="#A2C1C4"/>
<path d="M799.056 1654.48H993.616V1810.13C993.616 1863.86 950.062 1907.41 896.336 1907.41C842.609 1907.41 799.056 1863.86 799.056 1810.13V1654.48Z" fill="#A2C1C4"/>
<path d="M1003.34 1659.35H1188.18V1819.86C1188.18 1870.9 1146.8 1912.27 1095.76 1912.27C1044.72 1912.27 1003.34 1870.9 1003.34 1819.86V1659.35Z" fill="#A2C1C4"/>
<rect x="799.056" y="1644.75" width="194.56" height="150.784" fill="#B9D300"/>
<rect x="1003.34" y="1649.62" width="184.832" height="155.648" fill="#B9D300"/>
<path d="M823.376 1761.49C689.616 1749.33 639.354 1599.36 638.544 1528.02V1489.11H1314.64V1530.45C1297.13 1709.45 1195.47 1751.76 1137.1 1761.49C1091.71 1763.11 965.405 1765.38 823.376 1761.49Z" fill="#CCE70C"/>
<path fill-rule="evenodd" clip-rule="evenodd" d="M1236.82 1489.11C1262.76 1492.35 1303.46 1507.13 1285.46 1549.91C1266 1596.11 1253.84 1603.41 1200.34 1569.36C1188.99 1555.58 1166.77 1538.72 1168.72 1581.52C1171.15 1635.03 1166.29 1647.19 1107.92 1622.87C1049.55 1598.55 1042.26 1581.52 1088.46 1554.77C1106.3 1544.23 1127.38 1524.61 1069.01 1530.45C1005.02 1536.85 1002.76 1530.15 993.331 1502.16L993.331 1502.16C992.009 1498.23 990.546 1493.89 988.752 1489.11H1236.82ZM672.592 1489.11H823.375C817.7 1490.73 809.757 1497.38 823.376 1510.99C836.995 1524.61 851.749 1531.26 857.424 1532.88C870.394 1539.37 881.744 1547.47 859.856 1576.66C847.696 1588.82 840.4 1596.11 820.944 1603.41C820.781 1603.47 820.619 1603.53 820.456 1603.59L820.133 1603.7C808.978 1607.71 796.278 1612.27 782.032 1576.66C767.44 1545.04 745.552 1528.02 750.416 1586.39C753.659 1607.46 747.984 1640.86 699.344 1605.84C638.544 1562.07 640.976 1559.63 670.16 1542.61C699.344 1525.59 687.184 1503.7 672.592 1489.11ZM972.141 1763.63C927.608 1763.54 877.681 1762.96 825.588 1761.55C824.074 1756.99 820.998 1752.61 816.08 1749.33C782.032 1729.87 782.032 1725.01 806.352 1695.83C830.672 1666.64 867.152 1659.35 869.584 1688.53L869.685 1689.75C872.019 1717.78 872.221 1720.21 886.608 1725.01C898.281 1728.9 906.064 1699.07 908.496 1683.67C908.496 1659.35 915.792 1639.89 986.32 1669.07C1024.01 1696.29 1005.81 1709.09 986.057 1722.99L986.056 1722.99C982.866 1725.23 979.635 1727.51 976.591 1729.87C959.081 1743.49 977.402 1756.63 988.751 1761.49L972.141 1763.63ZM1245.87 1704.7C1210.91 1741.38 1169.94 1755.62 1139.66 1761.05C1137.23 1760.47 1134.75 1759.81 1132.24 1759.06C1137.1 1752.57 1145.37 1736.68 1139.54 1725.01C1132.24 1710.42 1139.54 1698.26 1200.34 1688.53C1210.06 1686.1 1248.97 1676.37 1246.54 1700.69C1246.42 1701.95 1246.19 1703.29 1245.87 1704.7Z" fill="#BE8FFE"/>
<path d="M950.61 1257.45C850.128 1284.82 806.352 1360.21 813.648 1454.25V1489.11H1314.64V1452.2C1301.67 1301.32 1248.98 1277.52 1183.08 1257.45C1163.86 1248.34 1032.53 1241.04 950.61 1257.45Z" fill="white"/>
<path d="M2725.2 258.515C2741.32 258.515 2754.38 245.448 2754.38 229.331C2754.38 213.213 2741.32 200.147 2725.2 200.147V258.515ZM-494.768 258.515H2725.2V200.147H-494.768V258.515Z" fill="#FFC343"/>
<path d="M1579.73 258.514H1718.35C1811.74 359.685 1805.9 436.861 1791.31 462.802C1745.1 338.77 1647.01 286.887 1579.73 258.514Z" fill="#FFC343"/>
<path d="M234.832 258.514H154.576C113.232 312.018 122.511 372.587 130.256 387.41C154.781 316.535 195.92 273.106 234.832 258.514Z" fill="#FFC343"/>
<path d="M2107.47 200.146H2199.44C2270.42 136.914 2263.07 70.3238 2253.39 51.7942C2222.73 140.389 2152.11 179.88 2107.47 200.146Z" fill="#FFC343"/>
<path d="M1694.03 350.93C1717.54 404.434 1729.05 515.333 1587.02 530.898C1523.79 431.186 1642.96 338.77 1694.03 350.93Z" fill="#A7BF01"/>
<path d="M2189.43 131.267C2206.66 92.4561 2215.1 12.0126 2110.98 0.72229C2064.63 73.0509 2151.99 140.087 2189.43 131.267Z" fill="#A7BF01"/>
<path d="M198.612 291.643C180.557 334.766 215.376 416.594 310.224 406.866C329.68 304.722 237.836 281.842 198.612 291.643Z" fill="#A7BF01"/>
<path d="M1747.54 346.067C1812.53 332.741 1938.52 347.976 1921.9 509.319C1796.15 555.705 1721.85 399.847 1747.54 346.067Z" fill="#A7BF01"/>
<path d="M2226.21 135.201C2273.49 144.896 2365.16 133.812 2353.07 16.4228C2261.58 -17.3261 2207.52 96.0718 2226.21 135.201Z" fill="#A7BF01"/>
<path d="M159.439 302.29C101.045 298.694 -3.9194 336.141 30.5434 474.962C146.081 499.91 188.515 346.072 159.439 302.29Z" fill="#A7BF01"/>
<rect x="614.224" y="127.186" width="189.696" height="111.872" rx="55.936" fill="#A2C1C4"/>
<rect x="1124.94" y="127.186" width="189.696" height="111.872" rx="55.936" fill="#98B9BB"/>
<ellipse cx="1023.77" cy="924.573" rx="245.533" ry="149.775" transform="rotate(-1.42646 1023.77 924.573)" fill="white"/>
<path d="M859.856 815.443C809.271 832.953 799.056 847.058 803.92 864.082C881.743 890.835 1013.07 805.714 957.137 778.962C901.201 752.21 874.449 769.234 898.769 791.123C857.425 776.531 830.673 815.443 859.856 815.443Z" fill="white"/>
<path d="M1187.13 816.187C1229.52 827.603 1236.82 847.059 1240.64 861.707C1166.19 886.743 1040.55 802.218 1094.06 777.182C1147.57 752.146 1163.86 777.182 1149.9 793.427C1183.31 776.531 1212.5 816.187 1187.13 816.187Z" fill="white"/>
<ellipse cx="884.176" cy="932.178" rx="31.616" ry="46.208" fill="#3B3B3B"/>
<ellipse cx="1161.42" cy="932.178" rx="31.616" ry="46.208" fill="#3B3B3B"/>
<ellipse cx="1032.53" cy="966.226" rx="38.912" ry="24.32" fill="#3B3B3B"/>
<path d="M1076.3 1012.43H988.752C990.373 1028.65 996.048 1053.78 1032.53 1053.78C1069.01 1053.78 1076.3 1025.4 1076.3 1012.43Z" fill="#FCA291"/>
</svg>
