<svg width="407" height="640" viewBox="0 0 407 640" fill="none" xmlns="http://www.w3.org/2000/svg">
<path d="M52.501 463.5C48 517.5 75.5066 526.5 90.0066 526.5C159.006 532.5 142.506 449.077 94.506 438C86.238 436.092 60.0064 435 54.0066 436.5C54.0066 444 54.0066 450 52.501 463.5Z" fill="#AE694E"/>
<path d="M216 607.5V552C229.2 517.2 261.5 535.5 276 549L277.5 607.5C277.5 624 268.5 637.5 250.5 639C232.5 640.5 216 627 216 607.5Z" fill="#B36C52"/>
<path d="M385.499 241.5C356.699 254.7 336.499 245 329.999 238.5C311.999 229 286.799 205.8 329.999 189C373.199 172.2 398.999 212 406.499 234C402.999 234.5 393.899 236.7 385.499 241.5Z" fill="#B0735D"/>
<path d="M202.5 87.0001C85.6918 106.882 82.4854 190.5 82.4854 244.5L82.4854 295.351C82.4854 335.235 82.4853 381.48 82.4854 450C82.4856 576.081 152.997 583.5 251.997 579C331.197 575.4 335.988 508.5 335.988 450V259.5C348 132 265.5 81 202.5 87.0001Z" fill="#C27B62"/>
<path d="M333 319C333 319 400.5 403.5 405 422.5C409.5 441.5 405 451 390 461C381.038 466.974 341.5 471.5 323 411.5C307.226 360.343 338.342 366.252 356.843 387.389C347.399 369.163 334.629 340.18 333 319Z" fill="#A65D42"/>
<path d="M144 607.5V552C157.2 517.2 189.5 535.5 204 549L205.5 607.5C205.5 624 196.5 637.5 178.5 639C160.5 640.5 144 627 144 607.5Z" fill="#C27B62"/>
<path d="M106.689 609C77.8887 610.2 72.6887 585.5 73.6887 573C70.6875 435 104.189 429 124.688 388.5C127.688 419.5 133.388 489.3 132.188 520.5C130.688 559.5 142.689 607.5 106.689 609Z" fill="#C27B62"/>
<path d="M157.99 372C146.741 386.051 140.99 413.5 141.49 427.5V472.5C141.49 523.5 188.494 550.5 215 553.5C284 558 308 508.5 309.5 477V420C309.5 363 252.494 338.5 223.991 340.5C186.491 340.5 170 357 157.99 372Z" fill="#FFC39B"/>
<path d="M245 453L228.5 471.084" stroke="#BF6E53" stroke-width="4.5" stroke-linecap="round"/>
<path d="M228.499 451.5L246.5 471" stroke="#BF6E53" stroke-width="4.5" stroke-linecap="round"/>
<path d="M25.5 237C55.5 255 76 247.5 82.5 241.5C95 230.5 112.5 204.6 82.5 189C52.5 173.4 15 202.5 0 219C1 220.5 7.5 226.2 25.5 237Z" fill="#C27B62"/>
<path fill-rule="evenodd" clip-rule="evenodd" d="M130.5 10.5C130.5 4.70101 125.799 0 120 0C114.201 0 109.5 4.70101 109.5 10.5V57C109.5 59.7848 110.606 62.4555 112.575 64.4246C117.772 69.6207 131.874 81.4261 149.804 90.3915C154.59 92.7845 158.006 97.6529 160.086 104.87C162.159 112.067 162.474 120.27 162.025 126.778C161.626 132.563 165.992 137.576 171.778 137.975C177.563 138.374 182.576 134.008 182.975 128.222C183.526 120.23 183.241 109.383 180.264 99.0551C178.589 93.2424 175.924 87.1678 171.764 81.8979L182.016 69.7824C183.62 67.8866 184.5 65.4835 184.5 63V40.5C184.5 34.701 179.799 30 174 30C168.201 30 163.5 34.701 163.5 40.5V59.1538L154.878 69.3431C144.158 63.4548 135.408 56.6965 130.5 52.4142V10.5Z" fill="#955837"/>
<path fill-rule="evenodd" clip-rule="evenodd" d="M310.5 16.5C310.5 10.701 315.201 6 321 6C326.799 6 331.5 10.701 331.5 16.5V57C331.5 59.7848 330.394 62.4555 328.425 64.4246C325.442 67.4076 319.454 71.9817 312.583 76.6219C305.508 81.3992 296.794 86.7197 287.983 91.1252C283.289 93.4725 279.925 98.254 277.872 105.376C275.826 112.477 275.515 120.578 275.958 127.006C276.357 132.791 271.991 137.804 266.206 138.203C260.42 138.602 255.407 134.236 255.008 128.451C254.462 120.537 254.745 109.794 257.694 99.561C259.261 94.1215 261.705 88.446 265.448 83.4283L253.695 72.0413C252.022 70.4209 250.936 68.2904 250.607 65.985L247.607 44.985C246.786 39.2443 250.775 33.9257 256.516 33.1056C262.257 32.2855 267.575 36.2744 268.395 42.0151L270.887 59.4586L282.24 70.4575C288.829 66.9481 295.329 62.9333 300.83 59.2186C304.926 56.4522 308.22 54.0198 310.5 52.2098V16.5Z" fill="#955837"/>
<path d="M178.5 262.5C182.177 239.212 210.998 238 223.498 240H248.998C259.998 239 282.475 247.5 283.498 270C284.698 296.4 262.998 304 251.998 304.5L232.498 325.5C228.998 321.5 220.498 311.7 214.498 304.5C197.998 303 174 291 178.5 262.5Z" fill="#FFC7A4"/>
<ellipse cx="234.972" cy="247.433" rx="17.472" ry="10.4832" fill="#4A1C00"/>
<path d="M160.5 181.5L171 177" stroke="#95583A" stroke-width="21" stroke-linecap="round"/>
<path d="M254.995 273.722L213 273.722C212.569 278.16 221.323 287.085 233.227 287.283C245.131 287.481 255.435 278.333 254.995 273.722Z" fill="white"/>
<path d="M273 177L283.5 180" stroke="#95583A" stroke-width="21" stroke-linecap="round"/>
<ellipse cx="172.5" cy="232.5" rx="12" ry="18" fill="#542003"/>
<ellipse cx="280.5" cy="232.5" rx="12" ry="18" fill="#562003"/>
<circle cx="289.5" cy="258.5" r="54.5" fill="#CDECFF" fill-opacity="0.25" stroke="#7D2C11" stroke-width="8"/>
<path d="M300 312.079L325.715 301L373 394.5L347.285 405.579L300 312.079Z" fill="#7D2C11"/>
<path d="M352.5 460.5C369.3 474.1 387.5 466.167 394.5 460.5C418 439.5 383.5 398.5 371.5 381C359.5 363.5 347.478 351.826 324.5 367C298 384.5 331.5 443.5 352.5 460.5Z" fill="#B36C52"/>
</svg>
