<svg version="1.2" xmlns="http://www.w3.org/2000/svg" viewBox="0 0 512 512" width="512" height="512"><style></style><path fill-rule="evenodd" d="m318.5 61c8 0 22.5 4.5 31.5 10 8.5 5.5 23 19.5 31.5 31.5 8.5 11.5 19.5 31 25 43.5 5.5 12.5 13.5 37 18 55 4 19 6 41.5 4.5 54-1.5 11.5-6 27-10 35-3.5 7.5-12 16-18.5 19-6.5 3-33.5 8.5-59.5 12.5-26 3.5-48 6.5-49 6.5-0.5 0.5 3.5 13 9 28 5.5 15 10 32.5 10 39 0 6-3.5 17.5-7.5 26-4 8.5-14 18.5-22.5 22.5-8.5 4-22.5 7.5-31 7.5-9 0-23-4-31.5-9-11.5-7-18.5-18.5-31-52.5-15-40-18-44-32.5-47.5-9-2.5-24-9.5-33.5-16.5-10-7-22.5-22.5-29-37-6-13.5-11.5-31.5-11.5-40 0-8.5 4-24 9-35 5-11 17.5-26.5 27.5-35 10-8.5 56-38 102-66.5 57.5-35 88.5-51 99-51zm-15.5 57.5c-1.5 8.5 0 28.5 3 45 3.5 16.5 12 42.5 19.5 57.5 7 15 20.5 34.5 29.5 43.5 8.5 9 20 16 25 15 5.5-0.5 10-8 13-21 3.5-13.5 3-28.5-1-47.5-3.5-15-12-40-19-55-7-15-18.5-34-26-41.5-7.5-8-17.5-16.5-22-19-5.5-2.5-10-2-13.5 2-2.5 3-6.5 12.5-8.5 21zm-102.5 44.5c-50.5 31.5-69 46-75.5 58.5-5 9.5-9 22.5-9 29.5 0 7 4.5 20 10 29 5.5 8.5 17.5 19.5 26.5 24 15 7.5 21 7.5 96.5-3.5l80.5-12c-22-27-34-49.5-41.5-67.5-7-18-15-47.5-17-66l-4-33.5zm7.5 184.5c1 3 6.5 18 11.5 33 5.5 15.5 14 29.5 20.5 33.5 10 6 13 6 24.5-1.5 11-7.5 13-11.5 10.5-24-1.5-8-6.5-23.5-10.5-33.5-6.5-14.5-11-19-19.5-18-6 0-17.5 1.5-25 2.5-8 1-13 4-12 8z"/></svg>