<svg width="2814" height="686" viewBox="0 0 2814 686" fill="none" xmlns="http://www.w3.org/2000/svg">
<path d="M0 177C0 79.2456 79.2456 0 177 0H1597C1694.75 0 1774 79.2456 1774 177V509C1774 606.754 1694.75 686 1597 686H0V177Z" fill="rgb(59,130, 246)"/>
<rect width="2814" height="389" fill="rgb(59,130, 246)"/>
<rect x="1720" y="342" width="1094" height="344" fill="#F1F8FE"/>
<path d="M1304 172C1304 77.007 1381.01 0 1476 0H2814V344H1476C1381.01 344 1304 266.993 1304 172V172Z" fill="#F1F8FE"/>
<rect x="824" y="342" width="1040" height="344" rx="172" fill="rgb(59,130, 246)"/>
<rect x="370" y="224" width="725" height="240" rx="120" fill="#F1F8FE"/>
</svg>
