<svg width="2814" height="1319" viewBox="0 0 2814 1319" fill="none" xmlns="http://www.w3.org/2000/svg">
<path d="M0 474C0 376.246 79.2456 297 177 297H1597C1694.75 297 1774 376.246 1774 474V1142C1774 1239.75 1694.75 1319 1597 1319H0V474Z" fill="white"/>
<rect width="2814" height="1022" fill="white"/>
<rect x="1720" y="975" width="1094" height="344" fill="rgb(59,130, 246)"/>
<path d="M1304 805C1304 710.007 1381.01 633 1476 633H2814V977H1476C1381.01 977 1304 899.993 1304 805V805Z" fill="rgb(59,130, 246)"/>
<rect x="824" y="975" width="1040" height="344" rx="172" fill="white"/>
<rect x="600" y="757" width="370" height="370" rx="200" fill="rgb(59,130, 246)"/>
</svg>
