<svg width="5624" height="687" viewBox="0 0 5624 687" fill="none" xmlns="http://www.w3.org/2000/svg">
<path d="M2809.9 177C2809.9 79.2456 2730.65 0 2632.9 0H1215.48C1117.73 0 1038.48 79.2456 1038.48 177V508C1038.48 605.754 1117.73 685 1215.48 685H2809.9V177Z" fill="rgb(251,191,36)"/>
<rect width="2809.9" height="388.433" transform="matrix(-1 0 0 1 2809.9 0)" fill="rgb(251,191,36)"/>
<rect width="1092.41" height="343.499" transform="matrix(-1 0 0 1 1092.41 341.501)" fill="white"/>
<path d="M1507.8 171.749C1507.8 76.8948 1430.9 0 1336.05 0H0V343.499H1336.05C1430.9 343.499 1507.8 266.604 1507.8 171.749V171.749Z" fill="white"/>
<rect width="1038.48" height="343.499" rx="171.749" transform="matrix(-1 0 0 1 1987.1 341.501)" fill="rgb(251,191,36)"/>
<path d="M2810 178C2810 80.2456 2889.25 1 2987 1H4407C4504.75 1 4584 80.2456 4584 178V510C4584 607.754 4504.75 687 4407 687H2810V178Z" fill="rgb(251,191,36)"/>
<rect x="2810" y="1" width="2814" height="389" fill="rgb(251,191,36)"/>
<rect x="4530" y="343" width="1094" height="344" fill="white"/>
<path d="M4114 173C4114 78.007 4191.01 1 4286 1H5624V345H4286C4191.01 345 4114 267.993 4114 173V173Z" fill="white"/>
<rect x="3634" y="343" width="1040" height="344" rx="172" fill="rgb(251,191,36)"/>
</svg>
