<svg xmlns="http://www.w3.org/2000/svg" xmlns:xlink="http://www.w3.org/1999/xlink" viewBox="0 0 512 512" width="512" height="512" style="width: 100%; height: 100%; transform: translate3d(0px, 0px, 0px);" preserveAspectRatio="xMidYMid meet"><defs><clipPath id="__lottie_element_344"><rect width="512" height="512" x="0" y="0"></rect></clipPath></defs><g clip-path="url(#__lottie_element_344)"><g style="display: block;" transform="matrix(0.9999976754188538,-0.002144988626241684,0.002144988626241684,0.9999976754188538,251.30841064453125,256.0003356933594)" opacity="1"><g opacity="1" transform="matrix(1,0,0,1,0,0)"><path stroke-linecap="round" stroke-linejoin="round" fill-opacity="0" stroke="#1E5B85" stroke-opacity="1" stroke-width="30.72" d=" M179.93,-56.2 C156.12,-130.39 86.53,-184.08 4.39,-184.08 C-97.42,-184.08 -179.93,-101.62 -179.93,0.12 C-179.93,101.84 -97.42,184.32 4.39,184.32 C46.54,184.32 85.39,170.18 116.44,146.38 C116.44,146.38 133.41,133.15 133.41,133.15"></path><g opacity="1" transform="matrix(1,0,0,0.999361515045166,0,0.1174774169921875)"></g></g></g><g style="display: block;" transform="matrix(0.9999976754188538,-0.002144988626241684,0.002144988626241684,0.9999976754188538,266.0078430175781,317.7330627441406)" opacity="1"><g opacity="1" transform="matrix(1,0,0,1,0,0)"><path stroke-linecap="round" stroke-linejoin="round" fill-opacity="0" stroke="#1E5B85" stroke-opacity="1" stroke-width="30.72" d=" M-11.461000442504883,33.106998443603516 C2.515000104904175,28.81800079345703 11.461000442504883,22.23200035095215 11.461000442504883,14.848999977111816 C11.461000442504883,7.086999893188477 -4.235000133514404,-1.649999976158142 -4.235000133514404,-1.649999976158142 C-4.235000133514404,-1.649999976158142 11.461000442504883,-9.972000122070312 11.461000442504883,-17.33300018310547 C11.461000442504883,-23.68000030517578 2.8329999446868896,-29.35099983215332 -10.71500015258789,-33.106998443603516"></path><g opacity="1" transform="matrix(1,0,0,1,0,0)"></g></g></g><g style="display: block;" transform="matrix(0.9999976754188538,-0.002144988626241684,0.002144988626241684,0.9999976754188538,-0.854472815990448,-0.08324199914932251)" opacity="1"><g opacity="1" transform="matrix(1,0,0,1,198.75799560546875,205.40899658203125)"><path stroke-linecap="round" stroke-linejoin="round" fill-opacity="0" stroke="#1E5B85" stroke-opacity="1" stroke-width="30.72" d=" M-22.277999877929688,5.729000091552734 C-16.857999801635742,-1.3250000476837158 -8.868000030517578,-5.729000091552734 -0.0010000000474974513,-5.729000091552734 C8.864999771118164,-5.729000091552734 16.85700035095215,-1.3250000476837158 22.277999877929688,5.729000091552734"></path></g><g opacity="1" transform="matrix(1,0,0,1,310.7569885253906,205.40899658203125)"><path stroke-linecap="round" stroke-linejoin="round" fill-opacity="0" stroke="#1E5B85" stroke-opacity="1" stroke-width="30.72" d=" M-22.277999877929688,5.729000091552734 C-16.85700035095215,-1.3250000476837158 -8.868000030517578,-5.729000091552734 0,-5.729000091552734 C8.868000030517578,-5.729000091552734 16.858999252319336,-1.3250000476837158 22.277999877929688,5.729000091552734"></path></g></g><g style="display: block;" transform="matrix(0.9999841451644897,-0.005628921557217836,0.005628921557217836,0.9999841451644897,-1.2795666456222534,0.9704065918922424)" opacity="1"><g opacity="1" transform="matrix(1,0,0,1,122.87999725341797,122.87999725341797)"><path stroke-linecap="round" stroke-linejoin="round" fill-opacity="0" stroke="#1E5B85" stroke-opacity="1" stroke-width="30.72" d=" M71.68000030517578,-40.959999084472656 C71.68000030517578,-40.959999084472656 -71.68000030517578,-71.68000030517578 -71.68000030517578,-71.68000030517578 C-71.68000030517578,-71.68000030517578 -40.959999084472656,71.68000030517578 -40.959999084472656,71.68000030517578"></path></g><g opacity="1" transform="matrix(1,0,0,1,97.27999877929688,97.27999877929688)"><path stroke-linecap="round" stroke-linejoin="round" fill-opacity="0" stroke="#1E5B85" stroke-opacity="1" stroke-width="30.72" d=" M-25.600000381469727,25.600000381469727 C-25.600000381469727,25.600000381469727 25.600000381469727,-25.600000381469727 25.600000381469727,-25.600000381469727"></path></g></g><g style="display: block;" transform="matrix(0.9999976754188538,-0.002144988626241684,0.002144988626241684,0.9999976754188538,379.28277587890625,293.3370361328125)" opacity="1"><g opacity="1" transform="matrix(1,0,0,1,0,0)"><path stroke-linecap="round" stroke-linejoin="round" fill-opacity="0" stroke="#1E5B85" stroke-opacity="1" stroke-width="30.72" d=" M-56.02799987792969,31.833999633789062 C-56.02799987792969,31.833999633789062 -2.5450000762939453,31.535999298095703 24.194000244140625,31.833999633789062 C40.492000579833984,32.01599884033203 56.08399963378906,17.520000457763672 56.08399963378906,-1.3270000219345093 C56.08399963378906,-41.48400115966797 -1.5470000505447388,-41.48400115966797 -1.5470000505447388,-2.4240000247955322"></path></g></g></g></svg>