<svg xmlns="http://www.w3.org/2000/svg" xmlns:xlink="http://www.w3.org/1999/xlink" viewBox="0 0 512 512" width="512" height="512" preserveAspectRatio="xMidYMid meet"><defs><clipPath id="__lottie_element_513"><rect width="512" height="512" x="0" y="0"></rect></clipPath></defs><g clip-path="url(#__lottie_element_513)"><g style="display: block;" transform="matrix(0.9999204277992249,-0.012616337276995182,0.012616337276995182,0.9999204277992249,256.8386535644531,253.225830078125)" opacity="1"><path stroke-linecap="round" stroke-linejoin="round" fill-opacity="0" stroke="rgb(0,0,0)" stroke-opacity="1" stroke-width="32" d=" M-3.81,-127.24 C-3.81,-127.24 10.03,-152.27 10.03,-152.27 C19.81,-169.96 43.81,-173.35 58.09,-159.05 C58.09,-159.05 159.07,-58.06 159.07,-58.06 C173.37,-43.78 169.99,-19.78 152.3,-10 C152.3,-10 127.26,3.84 127.26,3.84 C113.42,11.51 96.15,9.08 84.96,-2.11 C84.96,-2.11 2.16,-84.93 2.16,-84.93 C-9.05,-96.13 -11.48,-113.37 -3.81,-127.24z M79.59,-7.58 C79.59,-7.58 55.71,136.79 55.71,136.79 C53.96,146.59 45.65,153.56 35.85,153.42 C0.44,152.34 -83.02,152.62 -145.68,169.93 C-153.05,171.94 -160.04,169.53 -164.74,164.83 C-169.56,160.01 -171.97,153.02 -169.96,145.65 C-152.53,83.13 -152.39,-0.47 -153.33,-35.76 C-153.58,-45.68 -146.61,-54 -136.81,-55.74 C-136.81,-55.74 7.55,-79.62 7.55,-79.62 M-22.82,22.85 C-10.65,35 -10.65,54.74 -22.82,66.91 C-34.99,79.07 -54.71,79.07 -66.88,66.91 C-79.05,54.74 -79.05,35 -66.88,22.85 C-54.71,10.68 -34.99,10.68 -22.82,22.85z M-66.89,66.88 C-66.89,66.88 -164.88,164.87 -164.88,164.87"></path><g opacity="1" transform="matrix(1,0,0,0.992087721824646,0,1.36077880859375)"><g opacity="1" transform="matrix(0.992087721824646,0,0,1,-1.352935791015625,0)"></g></g></g><g style="display: none;"><g><path stroke-linecap="round" stroke-linejoin="miter" fill-opacity="0" stroke-miterlimit="4"></path></g></g></g></svg>