<svg width="7020" height="3052" viewBox="0 0 7020 3052" fill="none" xmlns="http://www.w3.org/2000/svg">
<path d="M5287.61 1485.37C5367.86 1997.01 5008.94 2037.13 4816.1 2023.76C4334.57 2023.76 4285.52 1664.84 4321.19 1485.37C4321.19 1002.72 4411.48 30.0652 4772.63 0.637975C5133.78 -28.7892 5240.79 967.054 5287.61 1485.37Z" fill="#77B725"/>
<path d="M4806.07 2251.15V428.67" stroke="#558D03" stroke-width="33.44" stroke-linecap="round"/>
<path d="M4812.76 1070.72C4888.56 1059.57 5036.81 976.417 5023.43 732.974" stroke="#558D03" stroke-width="33.44" stroke-linecap="round"/>
<path d="M4628.84 552.398C4617.69 622.622 4638.2 761.732 4809.42 756.382" stroke="#558D03" stroke-width="33.44" stroke-linecap="round"/>
<path d="M4809.42 1465.31C4715.78 1477.57 4513.81 1417.16 4454.95 1077.41" stroke="#558D03" stroke-width="33.44" stroke-linecap="round"/>
<path d="M6007.61 1725.37C6087.86 2237.01 5728.94 2277.13 5536.1 2263.76C5054.57 2263.76 5005.52 1904.84 5041.19 1725.37C5041.19 1242.72 5131.48 270.065 5492.63 240.638C5853.78 211.211 5960.79 1207.05 6007.61 1725.37Z" fill="#77B725"/>
<path d="M5526.07 2491.15V668.67" stroke="#558D03" stroke-width="33.44" stroke-linecap="round"/>
<path d="M5532.76 1310.72C5608.56 1299.57 5756.81 1216.42 5743.43 972.974" stroke="#558D03" stroke-width="33.44" stroke-linecap="round"/>
<path d="M5348.84 792.398C5337.69 862.622 5358.2 1001.73 5529.42 996.382" stroke="#558D03" stroke-width="33.44" stroke-linecap="round"/>
<path d="M5529.42 1705.31C5435.78 1717.57 5233.81 1657.16 5174.95 1317.41" stroke="#558D03" stroke-width="33.44" stroke-linecap="round"/>
<path d="M3927.61 1725.37C4007.86 2237.01 3648.94 2277.13 3456.1 2263.76C2974.57 2263.76 2925.52 1904.84 2961.19 1725.37C2961.19 1242.72 3051.48 270.065 3412.63 240.638C3773.78 211.211 3880.79 1207.05 3927.61 1725.37Z" fill="#77B725"/>
<path d="M3446.07 2491.15V668.67" stroke="#558D03" stroke-width="33.44" stroke-linecap="round"/>
<path d="M3452.76 1310.72C3528.56 1299.57 3676.81 1216.42 3663.43 972.974" stroke="#558D03" stroke-width="33.44" stroke-linecap="round"/>
<path d="M3268.84 792.398C3257.69 862.622 3278.2 1001.73 3449.42 996.382" stroke="#558D03" stroke-width="33.44" stroke-linecap="round"/>
<path d="M3449.42 1705.31C3355.78 1717.57 3153.81 1657.16 3094.95 1317.41" stroke="#558D03" stroke-width="33.44" stroke-linecap="round"/>
<path d="M4415.61 1725.37C4495.86 2237.01 4136.94 2277.13 3944.1 2263.76C3462.57 2263.76 3413.52 1904.84 3449.19 1725.37C3449.19 1242.72 3539.48 270.065 3900.63 240.638C4261.78 211.211 4368.79 1207.05 4415.61 1725.37Z" fill="#FFD77C"/>
<path d="M3934.07 2491.15V668.67" stroke="#D4924C" stroke-width="33.44" stroke-linecap="round"/>
<path d="M3940.76 1310.72C4016.56 1299.57 4164.81 1216.42 4151.43 972.974" stroke="#D4924C" stroke-width="33.44" stroke-linecap="round"/>
<path d="M3756.84 792.398C3745.69 862.622 3766.2 1001.73 3937.42 996.382" stroke="#D4924C" stroke-width="33.44" stroke-linecap="round"/>
<path d="M3937.42 1705.31C3843.78 1717.57 3641.81 1657.16 3582.95 1317.41" stroke="#D4924C" stroke-width="33.44" stroke-linecap="round"/>
<path d="M5959.61 1701.37C6039.86 2213.01 5680.94 2253.13 5488.1 2239.76C5006.57 2239.76 4957.52 1880.84 4993.19 1701.37C4993.19 1218.72 5083.48 246.065 5444.63 216.638C5805.78 187.211 5912.79 1183.05 5959.61 1701.37Z" fill="#FFD77C"/>
<path d="M5480 2800L5480 648" stroke="#D4924C" stroke-width="33.44" stroke-linecap="round"/>
<path d="M5484.76 1286.72C5560.56 1275.57 5708.81 1192.42 5695.43 948.974" stroke="#D4924C" stroke-width="33.44" stroke-linecap="round"/>
<path d="M5300.84 768.398C5289.69 838.622 5310.2 977.732 5481.42 972.382" stroke="#D4924C" stroke-width="33.44" stroke-linecap="round"/>
<path d="M5481.42 1681.31C5387.78 1693.57 5185.81 1633.16 5126.95 1293.41" stroke="#D4924C" stroke-width="33.44" stroke-linecap="round"/>
<path d="M1287.61 1725.37C1367.86 2237.01 1008.94 2277.13 816.103 2263.76C334.567 2263.76 285.522 1904.84 321.191 1725.37C321.191 1242.72 411.479 270.065 772.631 240.638C1133.78 211.211 1240.79 1207.05 1287.61 1725.37Z" fill="#77B725"/>
<path d="M806.071 2491.15V668.67" stroke="#558D03" stroke-width="33.44" stroke-linecap="round"/>
<path d="M812.759 1310.72C888.557 1299.57 1036.81 1216.42 1023.43 972.974" stroke="#558D03" stroke-width="33.44" stroke-linecap="round"/>
<path d="M628.839 792.398C617.693 862.622 638.202 1001.73 809.415 996.382" stroke="#558D03" stroke-width="33.44" stroke-linecap="round"/>
<path d="M809.415 1705.31C715.783 1717.57 513.806 1657.16 454.951 1317.41" stroke="#558D03" stroke-width="33.44" stroke-linecap="round"/>
<path d="M2727.61 1725.37C2807.86 2237.01 2448.94 2277.13 2256.1 2263.76C1774.57 2263.76 1725.52 1904.84 1761.19 1725.37C1761.19 1242.72 1851.48 270.065 2212.63 240.638C2573.78 211.211 2680.79 1207.05 2727.61 1725.37Z" fill="#77B725"/>
<path d="M2246.07 2491.15V668.67" stroke="#558D03" stroke-width="33.44" stroke-linecap="round"/>
<path d="M2252.76 1310.72C2328.56 1299.57 2476.81 1216.42 2463.43 972.974" stroke="#558D03" stroke-width="33.44" stroke-linecap="round"/>
<path d="M2068.84 792.398C2057.69 862.622 2078.2 1001.73 2249.42 996.382" stroke="#558D03" stroke-width="33.44" stroke-linecap="round"/>
<path d="M2249.42 1705.31C2155.78 1717.57 1953.81 1657.16 1894.95 1317.41" stroke="#558D03" stroke-width="33.44" stroke-linecap="round"/>
<path d="M5663.61 2045.37C5743.86 2557.01 5384.94 2597.13 5192.1 2583.76C4710.57 2583.76 4661.52 2224.84 4697.19 2045.37C4697.19 1562.72 4787.48 590.065 5148.63 560.638C5509.78 531.211 5616.79 1527.05 5663.61 2045.37Z" fill="#C0F57C"/>
<path d="M5184 2864L5184 992" stroke="#79CB00" stroke-width="33.44" stroke-linecap="round"/>
<path d="M5188.76 1630.72C5264.56 1619.57 5412.81 1536.42 5399.43 1292.97" stroke="#79CB00" stroke-width="33.44" stroke-linecap="round"/>
<path d="M5004.84 1112.4C4993.69 1182.62 5014.2 1321.73 5185.42 1316.38" stroke="#79CB00" stroke-width="33.44" stroke-linecap="round"/>
<path d="M5185.42 2025.31C5091.78 2037.57 4889.81 1977.16 4830.95 1637.41" stroke="#79CB00" stroke-width="33.44" stroke-linecap="round"/>
<path d="M7007.61 2045.37C7087.86 2557.01 6728.94 2597.13 6536.1 2583.76C6054.57 2583.76 6005.52 2224.84 6041.19 2045.37C6041.19 1562.72 6131.48 590.065 6492.63 560.638C6853.78 531.211 6960.79 1527.05 7007.61 2045.37Z" fill="#C0F57C"/>
<path d="M6526.07 2811.15V988.67" stroke="#79CB00" stroke-width="33.44" stroke-linecap="round"/>
<path d="M6532.76 1630.72C6608.56 1619.57 6756.81 1536.42 6743.43 1292.97" stroke="#79CB00" stroke-width="33.44" stroke-linecap="round"/>
<path d="M6348.84 1112.4C6337.69 1182.62 6358.2 1321.73 6529.42 1316.38" stroke="#79CB00" stroke-width="33.44" stroke-linecap="round"/>
<path d="M6529.42 2025.31C6435.78 2037.57 6233.81 1977.16 6174.95 1637.41" stroke="#79CB00" stroke-width="33.44" stroke-linecap="round"/>
<path d="M975.607 1725.37C1055.86 2237.01 696.941 2277.13 504.103 2263.76C22.5673 2263.76 -26.478 1904.84 9.19133 1725.37C9.19133 1242.72 99.4793 270.065 460.631 240.638C821.783 211.211 928.791 1207.05 975.607 1725.37Z" fill="#FFD77C"/>
<path d="M494.071 2491.15V668.67" stroke="#D4924C" stroke-width="33.44" stroke-linecap="round"/>
<path d="M500.759 1310.72C576.557 1299.57 724.807 1216.42 711.431 972.974" stroke="#D4924C" stroke-width="33.44" stroke-linecap="round"/>
<path d="M316.839 792.398C305.693 862.622 326.202 1001.73 497.415 996.382" stroke="#D4924C" stroke-width="33.44" stroke-linecap="round"/>
<path d="M497.415 1705.31C403.783 1717.57 201.806 1657.16 142.951 1317.41" stroke="#D4924C" stroke-width="33.44" stroke-linecap="round"/>
<path d="M5068 1936C5164 2548 4734.67 2596 4504 2580C3928 2580 3869.33 2150.67 3912 1936C3912 1358.67 4020 195.2 4452 160C4884 124.8 5012 1316 5068 1936Z" fill="#A8E25E"/>
<path d="M4492 2852V672" stroke="#45AC74" stroke-width="40" stroke-linecap="round"/>
<path d="M4500 1440C4590.67 1426.67 4768 1327.2 4752 1036" stroke="#45AC74" stroke-width="40" stroke-linecap="round"/>
<path d="M4280 820C4266.67 904 4291.2 1070.4 4496 1064" stroke="#45AC74" stroke-width="40" stroke-linecap="round"/>
<path d="M4496 1912C4384 1926.67 4142.4 1854.4 4072 1448" stroke="#45AC74" stroke-width="40" stroke-linecap="round"/>
<path d="M6412 1936C6508 2548 6078.67 2596 5848 2580C5272 2580 5213.33 2150.67 5256 1936C5256 1358.67 5364 195.2 5796 160C6228 124.8 6356 1316 6412 1936Z" fill="#A8E25E"/>
<path d="M5836 2852V672" stroke="#45AC74" stroke-width="40" stroke-linecap="round"/>
<path d="M5844 1440C5934.67 1426.67 6112 1327.2 6096 1036" stroke="#45AC74" stroke-width="40" stroke-linecap="round"/>
<path d="M5624 820C5610.67 904 5635.2 1070.4 5840 1064" stroke="#45AC74" stroke-width="40" stroke-linecap="round"/>
<path d="M5840 1912C5728 1926.67 5486.4 1854.4 5416 1448" stroke="#45AC74" stroke-width="40" stroke-linecap="round"/>
<path d="M4143.61 2045.37C4223.86 2557.01 3864.94 2597.13 3672.1 2583.76C3190.57 2583.76 3141.52 2224.84 3177.19 2045.37C3177.19 1562.72 3267.48 590.065 3628.63 560.638C3989.78 531.211 4096.79 1527.05 4143.61 2045.37Z" fill="#C0F57C"/>
<path d="M3662.07 2811.15V988.67" stroke="#79CB00" stroke-width="33.44" stroke-linecap="round"/>
<path d="M3668.76 1630.72C3744.56 1619.57 3892.81 1536.42 3879.43 1292.97" stroke="#79CB00" stroke-width="33.44" stroke-linecap="round"/>
<path d="M3484.84 1112.4C3473.69 1182.62 3494.2 1321.73 3665.42 1316.38" stroke="#79CB00" stroke-width="33.44" stroke-linecap="round"/>
<path d="M3665.42 2025.31C3571.78 2037.57 3369.81 1977.16 3310.95 1637.41" stroke="#79CB00" stroke-width="33.44" stroke-linecap="round"/>
<path d="M3548 1936C3644 2548 3214.67 2596 2984 2580C2408 2580 2349.33 2150.67 2392 1936C2392 1358.67 2500 195.2 2932 160C3364 124.8 3492 1316 3548 1936Z" fill="#A8E25E"/>
<path d="M2972 2852V672" stroke="#45AC74" stroke-width="40" stroke-linecap="round"/>
<path d="M2980 1440C3070.67 1426.67 3248 1327.2 3232 1036" stroke="#45AC74" stroke-width="40" stroke-linecap="round"/>
<path d="M2760 820C2746.67 904 2771.2 1070.4 2976 1064" stroke="#45AC74" stroke-width="40" stroke-linecap="round"/>
<path d="M2976 1912C2864 1926.67 2622.4 1854.4 2552 1448" stroke="#45AC74" stroke-width="40" stroke-linecap="round"/>
<path d="M2623.61 2045.37C2703.86 2557.01 2344.94 2597.13 2152.1 2583.76C1670.57 2583.76 1621.52 2224.84 1657.19 2045.37C1657.19 1562.72 1747.48 590.065 2108.63 560.638C2469.78 531.211 2576.79 1527.05 2623.61 2045.37Z" fill="#C0F57C"/>
<path d="M2142.07 2811.15V988.67" stroke="#79CB00" stroke-width="33.44" stroke-linecap="round"/>
<path d="M2148.76 1630.72C2224.56 1619.57 2372.81 1536.42 2359.43 1292.97" stroke="#79CB00" stroke-width="33.44" stroke-linecap="round"/>
<path d="M1964.84 1112.4C1953.69 1182.62 1974.2 1321.73 2145.42 1316.38" stroke="#79CB00" stroke-width="33.44" stroke-linecap="round"/>
<path d="M2145.42 2025.31C2051.78 2037.57 1849.81 1977.16 1790.95 1637.41" stroke="#79CB00" stroke-width="33.44" stroke-linecap="round"/>
<path d="M2028 1936C2124 2548 1694.67 2596 1464 2580C888 2580 829.334 2150.67 872 1936C872 1358.67 980 195.2 1412 160C1844 124.8 1972 1316 2028 1936Z" fill="#A8E25E"/>
<path d="M1452 2852V672" stroke="#45AC74" stroke-width="40" stroke-linecap="round"/>
<path d="M1460 1440C1550.67 1426.67 1728 1327.2 1712 1036" stroke="#45AC74" stroke-width="40" stroke-linecap="round"/>
<path d="M1240 820C1226.67 904 1251.2 1070.4 1456 1064" stroke="#45AC74" stroke-width="40" stroke-linecap="round"/>
<path d="M1456 1912C1344 1926.67 1102.4 1854.4 1032 1448" stroke="#45AC74" stroke-width="40" stroke-linecap="round"/>
<path d="M1282.35 2268.9C1362.61 2780.54 1003.69 2820.66 810.849 2807.29C329.313 2807.29 280.268 2448.37 315.937 2268.9C315.937 1786.25 406.225 813.595 767.377 784.168C1128.53 754.741 1235.54 1750.58 1282.35 2268.9Z" fill="#C0F57C"/>
<path d="M800.817 3034.68V1212.2" stroke="#79CB00" stroke-width="33.44" stroke-linecap="round"/>
<path d="M807.505 1854.25C883.303 1843.1 1031.55 1759.95 1018.18 1516.5" stroke="#79CB00" stroke-width="33.44" stroke-linecap="round"/>
<path d="M623.585 1335.93C612.439 1406.15 632.949 1545.26 804.161 1539.91" stroke="#79CB00" stroke-width="33.44" stroke-linecap="round"/>
<path d="M804.161 2248.84C710.529 2261.1 508.552 2200.69 449.697 1860.94" stroke="#79CB00" stroke-width="33.44" stroke-linecap="round"/>
</svg>
