<svg width="4000" height="3052" viewBox="0 0 4000 3052" fill="none" xmlns="http://www.w3.org/2000/svg">
<path d="M4540.61 1485.37C4620.86 1997.01 4261.94 2037.13 4069.1 2023.76C3587.57 2023.76 3538.52 1664.84 3574.19 1485.37C3574.19 1002.72 3664.48 30.0652 4025.63 0.637975C4386.78 -28.7892 4493.79 967.054 4540.61 1485.37Z" fill="#77B725"/>
<path d="M3881.84 552.398C3870.69 622.622 3891.2 761.732 4062.42 756.382" stroke="#558D03" stroke-width="33.44" stroke-linecap="round"/>
<path d="M4062.42 1465.31C3968.78 1477.57 3766.81 1417.16 3707.95 1077.41" stroke="#558D03" stroke-width="33.44" stroke-linecap="round"/>
<path d="M3180.61 1725.37C3260.86 2237.01 2901.94 2277.13 2709.1 2263.76C2227.57 2263.76 2178.52 1904.84 2214.19 1725.37C2214.19 1242.72 2304.48 270.065 2665.63 240.638C3026.78 211.211 3133.79 1207.05 3180.61 1725.37Z" fill="#77B725"/>
<path d="M2699.07 2491.15V668.67" stroke="#558D03" stroke-width="33.44" stroke-linecap="round"/>
<path d="M2705.76 1310.72C2781.56 1299.57 2929.81 1216.42 2916.43 972.974" stroke="#558D03" stroke-width="33.44" stroke-linecap="round"/>
<path d="M2521.84 792.398C2510.69 862.622 2531.2 1001.73 2702.42 996.382" stroke="#558D03" stroke-width="33.44" stroke-linecap="round"/>
<path d="M2702.42 1705.31C2608.78 1717.57 2406.81 1657.16 2347.95 1317.41" stroke="#558D03" stroke-width="33.44" stroke-linecap="round"/>
<path d="M3668.61 1725.37C3748.86 2237.01 3389.94 2277.13 3197.1 2263.76C2715.57 2263.76 2666.52 1904.84 2702.19 1725.37C2702.19 1242.72 2792.48 270.065 3153.63 240.638C3514.78 211.211 3621.79 1207.05 3668.61 1725.37Z" fill="#FFD77C"/>
<path d="M3187.07 2491.15V668.67" stroke="#D4924C" stroke-width="33.44" stroke-linecap="round"/>
<path d="M3193.76 1310.72C3269.56 1299.57 3417.81 1216.42 3404.43 972.974" stroke="#D4924C" stroke-width="33.44" stroke-linecap="round"/>
<path d="M3009.84 792.398C2998.69 862.622 3019.2 1001.73 3190.42 996.382" stroke="#D4924C" stroke-width="33.44" stroke-linecap="round"/>
<path d="M3190.42 1705.31C3096.78 1717.57 2894.81 1657.16 2835.95 1317.41" stroke="#D4924C" stroke-width="33.44" stroke-linecap="round"/>
<path d="M540.607 1725.37C620.863 2237.01 261.941 2277.13 69.1033 2263.76C-412.433 2263.76 -461.478 1904.84 -425.809 1725.37C-425.809 1242.72 -335.521 270.065 25.6313 240.638C386.783 211.211 493.791 1207.05 540.607 1725.37Z" fill="#77B725"/>
<path d="M59.0713 2491.15V668.67" stroke="#558D03" stroke-width="33.44" stroke-linecap="round"/>
<path d="M65.7593 1310.72C141.557 1299.57 289.807 1216.42 276.431 972.974" stroke="#558D03" stroke-width="33.44" stroke-linecap="round"/>
<path d="M-118.161 792.398C-129.307 862.622 -108.798 1001.73 62.4153 996.382" stroke="#558D03" stroke-width="33.44" stroke-linecap="round"/>
<path d="M62.4152 1705.31C-31.2168 1717.57 -233.194 1657.16 -292.049 1317.41" stroke="#558D03" stroke-width="33.44" stroke-linecap="round"/>
<path d="M1980.61 1725.37C2060.86 2237.01 1701.94 2277.13 1509.1 2263.76C1027.57 2263.76 978.522 1904.84 1014.19 1725.37C1014.19 1242.72 1104.48 270.065 1465.63 240.638C1826.78 211.211 1933.79 1207.05 1980.61 1725.37Z" fill="#77B725"/>
<path d="M1499.07 2491.15V668.67" stroke="#558D03" stroke-width="33.44" stroke-linecap="round"/>
<path d="M1505.76 1310.72C1581.56 1299.57 1729.81 1216.42 1716.43 972.974" stroke="#558D03" stroke-width="33.44" stroke-linecap="round"/>
<path d="M1321.84 792.398C1310.69 862.622 1331.2 1001.73 1502.42 996.382" stroke="#558D03" stroke-width="33.44" stroke-linecap="round"/>
<path d="M1502.42 1705.31C1408.78 1717.57 1206.81 1657.16 1147.95 1317.41" stroke="#558D03" stroke-width="33.44" stroke-linecap="round"/>
<path d="M4916.61 2045.37C4996.86 2557.01 4637.94 2597.13 4445.1 2583.76C3963.57 2583.76 3914.52 2224.84 3950.19 2045.37C3950.19 1562.72 4040.48 590.065 4401.63 560.638C4762.78 531.211 4869.79 1527.05 4916.61 2045.37Z" fill="#C0F57C"/>
<path d="M228.607 1725.37C308.863 2237.01 -50.0593 2277.13 -242.897 2263.76C-724.433 2263.76 -773.478 1904.84 -737.809 1725.37C-737.809 1242.72 -647.521 270.065 -286.369 240.638C74.7833 211.211 181.791 1207.05 228.607 1725.37Z" fill="#FFD77C"/>
<path d="M4321 1936C4417 2548 3987.67 2596 3757 2580C3181 2580 3122.33 2150.67 3165 1936C3165 1358.67 3273 195.2 3705 160C4137 124.8 4265 1316 4321 1936Z" fill="#A8E25E"/>
<path d="M3745 2852V672" stroke="#45AC74" stroke-width="40" stroke-linecap="round"/>
<path d="M3753 1440C3843.67 1426.67 4021 1327.2 4005 1036" stroke="#45AC74" stroke-width="40" stroke-linecap="round"/>
<path d="M3533 820C3519.67 904 3544.2 1070.4 3749 1064" stroke="#45AC74" stroke-width="40" stroke-linecap="round"/>
<path d="M3749 1912C3637 1926.67 3395.4 1854.4 3325 1448" stroke="#45AC74" stroke-width="40" stroke-linecap="round"/>
<path d="M3396.61 2045.37C3476.86 2557.01 3117.94 2597.13 2925.1 2583.76C2443.57 2583.76 2394.52 2224.84 2430.19 2045.37C2430.19 1562.72 2520.48 590.065 2881.63 560.638C3242.78 531.211 3349.79 1527.05 3396.61 2045.37Z" fill="#C0F57C"/>
<path d="M2915.07 2811.15V988.67" stroke="#79CB00" stroke-width="33.44" stroke-linecap="round"/>
<path d="M2921.76 1630.72C2997.56 1619.57 3145.81 1536.42 3132.43 1292.97" stroke="#79CB00" stroke-width="33.44" stroke-linecap="round"/>
<path d="M2737.84 1112.4C2726.69 1182.62 2747.2 1321.73 2918.42 1316.38" stroke="#79CB00" stroke-width="33.44" stroke-linecap="round"/>
<path d="M2918.42 2025.31C2824.78 2037.57 2622.81 1977.16 2563.95 1637.41" stroke="#79CB00" stroke-width="33.44" stroke-linecap="round"/>
<path d="M2801 1936C2897 2548 2467.67 2596 2237 2580C1661 2580 1602.33 2150.67 1645 1936C1645 1358.67 1753 195.2 2185 160C2617 124.8 2745 1316 2801 1936Z" fill="#A8E25E"/>
<path d="M2225 2852V672" stroke="#45AC74" stroke-width="40" stroke-linecap="round"/>
<path d="M2233 1440C2323.67 1426.67 2501 1327.2 2485 1036" stroke="#45AC74" stroke-width="40" stroke-linecap="round"/>
<path d="M2013 820C1999.67 904 2024.2 1070.4 2229 1064" stroke="#45AC74" stroke-width="40" stroke-linecap="round"/>
<path d="M2229 1912C2117 1926.67 1875.4 1854.4 1805 1448" stroke="#45AC74" stroke-width="40" stroke-linecap="round"/>
<path d="M1876.61 2045.37C1956.86 2557.01 1597.94 2597.13 1405.1 2583.76C923.567 2583.76 874.522 2224.84 910.191 2045.37C910.191 1562.72 1000.48 590.065 1361.63 560.638C1722.78 531.211 1829.79 1527.05 1876.61 2045.37Z" fill="#C0F57C"/>
<path d="M1395.07 2811.15V988.67" stroke="#79CB00" stroke-width="33.44" stroke-linecap="round"/>
<path d="M1401.76 1630.72C1477.56 1619.57 1625.81 1536.42 1612.43 1292.97" stroke="#79CB00" stroke-width="33.44" stroke-linecap="round"/>
<path d="M1217.84 1112.4C1206.69 1182.62 1227.2 1321.73 1398.42 1316.38" stroke="#79CB00" stroke-width="33.44" stroke-linecap="round"/>
<path d="M1398.42 2025.31C1304.78 2037.57 1102.81 1977.16 1043.95 1637.41" stroke="#79CB00" stroke-width="33.44" stroke-linecap="round"/>
<path d="M1281 1936C1377 2548 947.667 2596 717 2580C141 2580 82.3334 2150.67 125 1936C125 1358.67 233 195.2 665 160C1097 124.8 1225 1316 1281 1936Z" fill="#A8E25E"/>
<path d="M705 2852V672" stroke="#45AC74" stroke-width="40" stroke-linecap="round"/>
<path d="M713 1440C803.667 1426.67 981 1327.2 965 1036" stroke="#45AC74" stroke-width="40" stroke-linecap="round"/>
<path d="M493 820C479.667 904 504.2 1070.4 709 1064" stroke="#45AC74" stroke-width="40" stroke-linecap="round"/>
<path d="M709 1912C597 1926.67 355.4 1854.4 285 1448" stroke="#45AC74" stroke-width="40" stroke-linecap="round"/>
<path d="M535.354 2268.9C615.61 2780.54 256.687 2820.66 63.8497 2807.29C-417.686 2807.29 -466.732 2448.37 -431.062 2268.9C-431.062 1786.25 -340.774 813.595 20.3777 784.168C381.53 754.741 488.538 1750.58 535.354 2268.9Z" fill="#C0F57C"/>
<path d="M53.8176 3034.68V1212.2" stroke="#79CB00" stroke-width="33.44" stroke-linecap="round"/>
<path d="M60.5056 1854.25C136.303 1843.1 284.554 1759.95 271.178 1516.5" stroke="#79CB00" stroke-width="33.44" stroke-linecap="round"/>
<path d="M-123.414 1335.93C-134.561 1406.15 -114.051 1545.26 57.1616 1539.91" stroke="#79CB00" stroke-width="33.44" stroke-linecap="round"/>
<path d="M57.1615 2248.84C-36.4705 2261.1 -238.448 2200.69 -297.302 1860.94" stroke="#79CB00" stroke-width="33.44" stroke-linecap="round"/>
</svg>
